<?xml version="1.0" encoding="UTF-8" standalone="no"?>
<!-- Created with Inkscape (http://www.inkscape.org/) -->

<svg
   xmlns:dc="http://purl.org/dc/elements/1.1/"
   xmlns:cc="http://creativecommons.org/ns#"
   xmlns:rdf="http://www.w3.org/1999/02/22-rdf-syntax-ns#"
   xmlns:svg="http://www.w3.org/2000/svg"
   xmlns="http://www.w3.org/2000/svg"
   xmlns:sodipodi="http://sodipodi.sourceforge.net/DTD/sodipodi-0.dtd"
   xmlns:inkscape="http://www.inkscape.org/namespaces/inkscape"
   id="svg2"
   version="1.1"
   inkscape:version="0.48.4 r9939"
   width="330.69"
   height="330.69"
   xml:space="preserve"
   sodipodi:docname="formattedcoin.svg"><sodipodi:namedview
     pagecolor="#ffffff"
     bordercolor="#666666"
     borderopacity="1"
     objecttolerance="10"
     gridtolerance="10"
     guidetolerance="10"
     inkscape:pageopacity="0"
     inkscape:pageshadow="2"
     inkscape:window-width="1130"
     inkscape:window-height="1078"
     id="namedview16"
     showgrid="false"
     inkscape:zoom="0.71365931"
     inkscape:cx="165.345"
     inkscape:cy="165.345"
     inkscape:window-x="0"
     inkscape:window-y="0"
     inkscape:window-maximized="0"
     inkscape:current-layer="svg2" /><metadata
     id="metadata8"><rdf:RDF><cc:Work
         rdf:about=""><dc:format>image/svg+xml</dc:format><dc:type
           rdf:resource="http://purl.org/dc/dcmitype/StillImage" /><dc:title /></cc:Work></rdf:RDF></metadata><defs
     id="defs6"><clipPath
       clipPathUnits="userSpaceOnUse"
       id="clipPath34"><path
         d="m 1701.21,1503.03 1513.27,0 0,1513.31 -1513.27,0 0,-1513.31 z"
         id="path36"
         inkscape:connector-curvature="0" /></clipPath></defs><path
     d="M 330.69,165.34625 C 330.69,256.66375 256.6625,330.69 165.345,330.69 74.02625,330.69 0,256.66375 0,165.34625 0,74.0275 74.02625,0 165.345,0 256.6625,0 330.69,74.0275 330.69,165.34625"
     style="fill:#39a430;fill-opacity:1;fill-rule:nonzero;stroke:none"
     id="path22"
     inkscape:connector-curvature="0" /><path
     d="m 271.34164,225.85384 c -1.06658,4.48875 -7.3071,8.1296 -13.94173,8.1296 l -192.177623,0 c -6.632074,0 -11.146262,-3.64085 -10.079687,-8.1296 l 3.860762,-16.26429 c 1.0653,-4.49004 7.307113,-8.13214 13.941725,-8.13214 l 192.176363,0 c 6.63461,0 11.14626,3.6421 10.08095,8.13214 l -3.86076,16.26429"
     style="fill:#006417;fill-opacity:1;fill-rule:nonzero;stroke:none"
     id="path28"
     inkscape:connector-curvature="0" /><path
     d="m 261.58995,201.4574 -12.312,0 c 3.63449,-9.42372 5.6278,-19.65596 5.6278,-30.34585 0,-46.6419 -37.94661,-84.5847 -84.58979,-84.5847 -46.64191,0 -84.588523,37.9428 -84.588523,84.5847 0,10.68989 1.993313,20.92213 5.6278,30.34585 l -12.311987,0 c -3.185738,-9.54195 -4.913363,-19.74368 -4.913363,-30.34585 0,-53.03752 43.151083,-96.187337 96.186073,-96.187337 53.03754,0 96.18734,43.149817 96.18734,96.187337 l 0,0 c 0,10.60218 -1.72762,20.8039 -4.91335,30.34585"
     style="fill:#3a6f31;fill-opacity:1;fill-rule:nonzero;stroke:none"
     id="path38"
     inkscape:connector-curvature="0" /><path
     d="m 243.31836,233.64146 -16.09139,0 c 9.65382,-8.79573 17.27112,-19.79071 22.05098,-32.18406 l 12.312,0 c -3.98535,11.93316 -10.25131,22.8328 -18.27159,32.18406 m -129.91214,0 -16.09012,0 C 89.295825,224.2902 83.0286,213.39056 79.04325,201.4574 l 12.311987,0 c 4.7786,12.39335 12.397163,23.38832 22.050993,32.18406"
     style="fill:#3a6f31;fill-opacity:1;fill-rule:nonzero;stroke:none"
     id="path40"
     inkscape:connector-curvature="0" /><path
     d="m 105.3389,233.64146 115.21276,0 c 19.28222,-16.352 31.53319,-40.73952 31.53319,-68.00006 0,-49.2327 -39.90814,-89.140838 -89.13956,-89.140838 -49.23016,0 -89.14084,39.908138 -89.14084,89.140838 0,27.26054 12.250963,51.64806 31.53445,68.00006"
     style="fill:#f7dd5d;fill-opacity:1;fill-rule:nonzero;stroke:none"
     id="path42"
     inkscape:connector-curvature="0" /><path
     d="m 94.982087,233.64146 17.721123,0 C 91.8828,218.21747 78.358037,193.48162 78.358037,165.6414 c 0,-46.64445 37.944063,-84.59105 84.587253,-84.59105 46.6419,0 84.58851,37.9466 84.58851,84.59105 0,27.84023 -13.52603,52.57608 -34.34645,68.00006 l 17.72114,0 c 17.42874,-17.4173 28.2254,-41.47302 28.2254,-68.00006 0,-53.03626 -43.1498,-96.187337 -96.1886,-96.187337 -53.03881,0 -96.18734,43.151077 -96.18734,96.187337 0,26.52704 10.796662,50.58276 28.224137,68.00006"
     style="fill:#f2c42f;fill-opacity:1;fill-rule:nonzero;stroke:none"
     id="path44"
     inkscape:connector-curvature="0" /><path
     d="m 122.9202,233.64146 80.05145,0 c 23.26629,-13.7256 38.88605,-39.03351 38.88605,-68.00006 0,-43.5833 -35.32911,-78.912412 -78.91241,-78.912412 -43.58076,0 -78.911152,35.329112 -78.911152,78.912412 0,28.96655 15.619762,54.27446 38.886062,68.00006"
     style="fill:#f2c42f;fill-opacity:1;fill-rule:nonzero;stroke:none"
     id="path54"
     inkscape:connector-curvature="0" /><path
     d="m 129.48744,233.64146 66.91569,0 c 25.07018,-12.35775 42.32477,-38.16144 42.32477,-68.00006 0,-41.85314 -33.92947,-75.78515 -75.78261,-75.78515 -41.85314,0 -75.780077,33.93201 -75.780077,75.78515 0,29.83862 17.253317,55.64231 42.322227,68.00006"
     style="fill:#f7dd5d;fill-opacity:1;fill-rule:nonzero;stroke:none"
     id="path56"
     inkscape:connector-curvature="0" /><path
     d="m 137.14054,201.15215 21.72885,0 0,-74.99746 -23.63836,4.74084 0,-12.11548 23.50667,-4.74084 13.30069,0 0,87.11294 21.72885,0 0,11.19365 -56.6267,0 0,-11.19365"
     style="font-size:107.88045502px;font-style:normal;font-weight:normal;line-height:125%;letter-spacing:0px;word-spacing:0px;fill:#f2c42f;fill-opacity:1;stroke:none;font-family:Sans"
     id="path4059"
     inkscape:connector-curvature="0" /></svg>