<?xml version="1.0" encoding="UTF-8" standalone="no"?>
<svg
   xmlns:dc="http://purl.org/dc/elements/1.1/"
   xmlns:cc="http://creativecommons.org/ns#"
   xmlns:rdf="http://www.w3.org/1999/02/22-rdf-syntax-ns#"
   xmlns:svg="http://www.w3.org/2000/svg"
   xmlns="http://www.w3.org/2000/svg"
   version="1.1"
   width="252.05295"
   height="170.51668"
   viewBox="0 0 1102.7317 745.17131"
   id="svg3389">
  <defs
     id="defs7">
    <filter
       id="filter4167"
       style="color-interpolation-filters:sRGB"
       x="-0.2"
       width="1.4"
       y="-0.2"
       height="1.4">
      <feTurbulence
         id="feTurbulence4169"
         result="result91"
         type="fractalNoise"
         numOctaves="5"
         baseFrequency="0.05" />
      <feDisplacementMap
         yChannelSelector="A"
         id="feDisplacementMap4171"
         in2="result91"
         in="SourceGraphic"
         xChannelSelector="R"
         result="result5"
         scale="25" />
      <feComposite
         id="feComposite4173"
         in2="result5"
         operator="atop"
         in="SourceGraphic" />
    </filter>
  </defs>
  <metadata
     id="metadata3402">
    <rdf:RDF>
      <cc:Work
         rdf:about="">
        <dc:format>image/svg+xml</dc:format>
        <dc:type
           rdf:resource="http://purl.org/dc/dcmitype/StillImage" />
        <dc:title></dc:title>
      </cc:Work>
    </rdf:RDF>
  </metadata>
  <path
     transform="matrix(0.23738454,-0.09260514,0.09260513,0.23738454,614.09668,252.87742)"
     style="fill:none;fill-opacity:1;stroke:#ffffff;stroke-width:68.67915904;stroke-miterlimit:4;stroke-dasharray:none;stroke-opacity:1;filter:url(#filter4167)"
     id="path3340"
     d="M 743.21603,19.840805 C 691.12582,101.23174 687.88446,185.87518 684.62884,260.75486 L 521.83102,325.85173 C 472.99645,257.48333 420.90304,228.18894 306.95571,185.86563 L 186.49868,306.32265 c 42.32331,113.94732 71.6455,166.04075 140.01391,214.8753 l -65.12468,162.79786 c -74.87968,3.25564 -159.52308,6.49698 -240.914046,58.58717 l 0,169.30755 c 81.390966,52.09019 166.034366,55.33153 240.914046,58.58717 l 65.12468,162.7701 c -68.36841,48.8345 -97.6906,100.9278 -140.01391,214.8752 l 120.45703,120.457 c 113.94733,-42.3231 166.04074,-71.6176 214.87531,-139.986 l 162.79782,65.1247 c 3.25562,74.8796 6.49698,159.523 58.58719,240.914 l 169.30748,0 c 52.09025,-81.391 55.33159,-166.0344 58.58723,-240.914 l 162.79786,-65.1247 c 48.8346,68.3684 100.9278,97.6629 214.8751,139.986 l 120.4571,-120.457 c -42.3232,-113.9474 -71.6453,-166.0407 -140.0137,-214.8752 l 65.1246,-162.7701 c 74.8796,-3.25564 159.523,-6.49698 240.9139,-58.58717 l 0,-169.30755 c -81.3909,-52.09019 -166.0343,-55.33153 -240.9139,-58.58717 l -65.1246,-162.79786 c 68.3684,-48.83455 97.6905,-100.92798 140.0137,-214.8753 L 1348.7837,185.86563 c -113.9473,42.32331 -166.0405,71.6177 -214.8751,139.9861 L 971.11074,260.75486 C 967.8551,185.87518 964.61376,101.23174 912.52351,19.840805 l -169.30748,0 z M 827.86978,497.27356 A 329.9675,329.9675 0 0 1 1157.8329,827.23677 329.9675,329.9675 0 0 1 827.86978,1157.2001 329.9675,329.9675 0 0 1 497.90654,827.23677 329.9675,329.9675 0 0 1 827.86978,497.27356 Z" />
  <g
     transform="translate(59.356804,-454.35303)"
     id="text4221"
     style="font-style:normal;font-variant:normal;font-weight:500;font-stretch:normal;font-size:87.5px;line-height:125%;font-family:'Modern No. 20';-inkscape-font-specification:'Modern No. 20';letter-spacing:0px;word-spacing:0px;fill:#000000;fill-opacity:1;stroke:none;stroke-width:1px;stroke-linecap:butt;stroke-linejoin:miter;stroke-opacity:1">
    <path
       id="path4226"
       style="font-style:normal;font-variant:normal;font-weight:normal;font-stretch:normal;font-size:787.5px;font-family:'Fredericka the Great';-inkscape-font-specification:'Fredericka the Great';fill:#ffffff;fill-opacity:1"
       d="m 652.00794,527.3324 q 0.76905,9.22851 -6.15234,12.30468 -6.92139,3.07618 -16.91895,4.61426 -9.22851,0.76905 -18.45703,1.53809 -9.22851,0.76904 -13.84277,4.61426 -6.92139,-1.53809 -8.45947,0 -1.53809,0.76904 -5.3833,0.76904 -9.22852,4.61426 -15.38086,9.99756 -6.15235,4.61426 -12.30469,3.07617 -2.30713,2.30713 -3.84522,4.61426 -0.76904,2.30713 -3.07617,6.15234 -0.76904,3.84522 0.76904,5.3833 1.53809,0.76905 1.53809,3.07617 -0.76904,4.61426 -3.07617,6.92139 -1.53809,2.30713 -4.61426,3.84522 -6.15234,4.61425 -4.61426,9.22851 1.53809,4.61426 0,13.84277 -1.53808,9.22852 -5.3833,19.99512 -3.07617,9.99756 3.07617,16.91895 -6.15234,9.99756 -4.61425,19.22607 1.53808,9.22852 0,19.99512 0,9.99756 -0.76905,16.91894 -0.76904,6.15235 -3.84521,9.99756 0.76904,3.84522 2.30713,6.92139 2.30713,2.30713 2.30713,6.15234 -6.15235,4.61426 -3.84522,10.7666 3.07617,6.15235 0,13.84278 6.92139,9.22851 3.07617,14.61181 -3.84521,4.61426 -3.84521,10.76661 0,3.84521 2.30713,7.69043 2.30713,3.07617 -2.30713,6.15234 0.76904,3.84521 0.76904,9.22852 0,5.3833 -1.53808,8.45947 1.53808,4.61426 5.3833,5.3833 3.84521,0 6.92138,1.53808 0.76905,3.84522 0,6.15235 -0.76904,1.53808 -2.30713,3.84521 -1.53808,1.53809 -3.07617,3.84522 -1.53808,1.53808 -0.76904,5.3833 -6.15234,8.45947 -8.45947,16.1499 -2.30713,7.69043 2.30713,13.07373 -5.38331,20.76416 -0.76905,42.29736 -3.84521,10.76661 -3.07617,22.30225 1.53809,10.7666 0,21.5332 0,13.07373 -0.76904,19.99512 -0.76905,6.92139 -0.76905,19.99512 3.84522,3.07617 6.92139,2.30713 3.07617,-0.76905 6.15235,2.30716 -0.76905,9.2285 -5.38331,14.6118 -4.61425,5.3833 -3.07617,16.1499 1.53809,3.0762 3.07617,6.1523 1.53809,2.3072 1.53809,5.3833 6.15234,6.1524 8.45947,6.1524 2.30713,0 3.07617,1.5381 -3.07617,5.3833 -4.61425,6.9213 -1.53809,0.7691 -1.53809,4.6143 7.69043,1.5381 8.45947,3.0762 1.53809,0.769 2.30713,4.6142 -6.15234,2.3072 -5.3833,6.1524 0.76904,3.8452 5.3833,7.6904 5.3833,3.0762 12.30469,6.1524 7.69043,2.3071 13.84277,3.0761 10.76661,0.7691 16.91895,0 6.15234,-0.769 12.30469,0.7691 1.53808,6.1523 6.15234,9.2285 5.3833,2.3071 11.53564,2.3071 6.15235,0 12.30469,-0.769 6.15235,-1.5381 9.99756,-3.8452 7.69043,6.1523 6.15234,9.9975 -1.53808,3.8452 -5.3833,6.1524 -3.07617,2.3071 -7.69043,2.3071 -3.84521,0.769 -6.92138,-1.5381 -6.15235,1.5381 -10.7666,2.3071 -4.61426,0.7691 -9.99756,-3.0761 -5.3833,1.538 -9.99756,1.538 -3.84522,0 -7.69043,0 -3.84522,0 -7.69043,0 -3.07617,0 -7.69043,2.3072 -8.45947,-3.8452 -17.68799,-2.3072 -8.45947,2.3072 -17.68799,0.7691 -7.69043,3.0762 -18.45703,1.5381 -9.99756,-0.7691 -19.22607,-1.5381 -23.07129,5.3833 -49.9878,3.0762 -3.84521,0 -6.92138,1.538 -3.07617,1.5381 -7.69043,2.3072 -8.45947,1.5381 -16.1499,-2.3072 -6.92139,-3.8452 -16.14991,-0.769 -12.30468,0 -22.30224,-1.5381 -9.22852,-1.5381 -19.99512,0 -6.15234,0.7691 -13.84277,3.0762 -6.92139,2.3071 -14.61182,3.8452 -7.69043,1.5381 -15.38086,1.5381 -7.69043,0 -15.38086,-3.0762 -2.30713,-10.7666 3.07617,-10.7666 5.3833,-0.769 13.07373,-2.3071 5.3833,-0.7691 12.30469,-3.0762 7.69043,-3.0762 15.38086,-5.3833 7.69043,-3.0762 14.61182,-5.3833 6.92138,-3.0762 13.07373,-3.0762 13.84277,-5.3833 19.22607,-12.3047 5.3833,-6.9213 12.30469,-12.3046 0,-11.5357 6.92139,-16.919 -1.53809,-8.4595 0,-16.9189 2.30712,-9.2285 -3.84522,-13.0738 8.45947,-21.5332 7.69043,-45.37349 0,-23.84034 0,-46.14258 -5.3833,-5.3833 -6.15234,-7.69043 0,-2.30713 1.53808,-3.84522 6.92139,-4.61425 6.92139,-13.07373 0,-8.45947 -0.76904,-16.91894 -0.76905,-12.30469 1.53808,-26.91651 2.30713,-14.61181 3.84522,-30.76172 -2.30713,-1.53808 -5.3833,-3.07617 -2.30713,-2.30713 1.53808,-5.3833 -23.07129,0 -47.68066,-1.53808 -23.84033,-1.53809 -47.68067,-2.30713 -23.84033,-1.53809 -47.68066,-0.76905 -23.07129,0 -44.60449,4.61426 -17.68799,3.07617 -30.76172,2.30713 -13.07373,-1.53808 -23.84033,4.61426 0,7.69043 -3.84522,8.45947 -3.84521,0.76904 -5.3833,2.30713 3.84522,6.92139 -1.53808,12.30469 3.07617,1.53808 7.69043,0 5.3833,-1.53809 8.45947,0.76904 -8.45947,1.53809 -6.92139,6.92139 -5.3833,0 -8.45947,2.30713 -3.84522,14.61181 4.61426,16.91894 -3.84522,6.15235 -5.3833,14.61182 -1.53809,7.69043 7.69043,12.30469 -4.61426,2.30712 -8.45948,6.92138 -3.07617,4.61426 2.30713,6.92139 0,6.92139 -0.76904,9.22851 -0.76904,2.30713 -2.30713,5.38331 2.30713,5.3833 6.92139,3.07617 4.61425,-2.30713 8.45947,0.76904 -5.3833,6.15234 -6.15234,12.30469 0,5.3833 -9.22852,6.92138 0.76904,9.22852 6.15234,10.76661 5.3833,1.53808 8.45948,4.61425 -2.30713,3.84522 -3.84522,6.15235 -1.53808,1.53808 -5.3833,2.30713 1.53809,8.45947 -0.76904,17.68799 -1.53809,9.2285 4.61426,17.688 -1.53809,6.1523 -3.07618,13.8428 -0.76904,7.6904 3.07618,14.6118 5.3833,-2.3072 7.69043,0.769 3.07617,3.0762 8.45947,2.3071 -0.76904,2.3072 -0.76904,6.9214 0,3.8452 -3.84522,5.3833 -4.61426,13.0738 -3.07617,20.7642 1.53808,7.6904 4.61426,13.8428 8.45947,3.0761 15.38086,6.1523 7.69043,3.0762 16.91894,2.3071 6.92139,0 15.38086,-0.769 9.22852,-1.5381 16.91895,-2.3071 3.07617,3.0761 9.99755,3.0761 3.84522,6.1524 0,9.9976 -3.84521,3.8452 -5.3833,5.3833 -4.61425,-3.8452 -6.15234,-3.0762 -1.53809,1.5381 -3.84522,2.3072 -5.3833,-2.3072 -12.30468,-2.3072 -6.92139,0.7691 -13.84278,0.7691 -6.15234,0.769 -12.30468,0.769 -5.3833,0 -9.22852,-2.3071 -8.45947,-0.7691 -18.45703,0.769 -9.22852,1.5381 -16.91895,-2.3071 -9.99755,0.769 -23.07128,2.3071 -12.30469,1.5381 -22.30225,-2.3071 -1.53809,1.5381 -5.3833,2.3071 -3.07617,1.5381 -5.3833,3.0762 -20.764163,0.769 -36.914065,2.3071 -16.149902,1.5381 -33.837891,6.9214 -5.383301,-2.3071 -11.535644,-1.5381 -5.383301,0.7691 -11.535645,1.5381 -6.1523436,1.5381 -12.30468733,1.5381 -5.38330077,0.769 -9.99755857,-3.0762 -14.6118161,0 -26.9165041,2.3072 -13.07373,3.0761 -23.071289,-6.9214 2.307129,-6.9214 6.152344,-10.7666 15.380859,-0.7691 33.068848,-4.6143 17.6879878,-3.8452 30.761718,-13.0737 7.69043,-1.5381 13.073731,-3.0762 5.383301,-1.5381 9.997558,-3.8452 7.69043,-3.8452 8.459473,-12.3047 1.538086,-8.4595 3.076172,-20.7642 0.769043,-6.1523 2.307129,-11.5356 1.538086,-5.3833 -3.076172,-11.5356 3.845215,-10.7666 4.614258,-25.3785 0.769043,-15.38082 -6.921387,-23.07125 9.997559,-22.30225 7.69043,-41.52832 -2.307129,-19.22607 -1.538086,-37.68311 0,-11.53564 -0.769043,-23.07129 -0.769043,-12.30468 0.769043,-25.37841 0.769043,-10.7666 0,-23.07129 -0.769043,-12.30469 0.769043,-23.07129 0.769043,-9.99756 -0.769043,-18.45703 -1.538086,-8.45948 -8.459473,-14.61182 8.459473,-13.84277 7.69043,-25.37842 -0.769043,-12.30468 0.769043,-25.37841 -1.538086,-1.53809 -3.845215,-2.30713 -2.307129,-0.76905 -3.076172,-3.07618 4.614258,-9.99755 4.614258,-21.5332 0,-11.53564 -1.538086,-23.07129 -1.538086,-11.53564 -3.076172,-23.07129 -1.538086,-11.53564 -1.538086,-20.76416 2.307129,-3.84521 1.538086,-6.92138 0,-3.07618 3.076172,-6.15235 -1.538086,-12.30468 0,-21.5332 2.307129,-9.22852 -3.076172,-17.68799 3.076172,-9.99756 -1.538086,-17.68799 -4.614258,-7.69043 -13.07373,-12.30468 -8.459473,-4.61426 -20.7641606,-6.15235 -11.5356445,-2.30713 -23.0712894,-0.76904 -7.690429,2.30713 -9.228515,3.84521 -1.538086,1.53809 -3.076172,3.07618 -5.383301,-3.84522 -12.304688,-3.84522 -6.921386,0 -13.842773,0 -0.769043,-4.61426 0,-7.69043 0,-3.84521 2.307129,-5.3833 10.766601,-0.76904 17.687988,-1.53809 6.152344,-1.53808 15.38086,-1.53808 10.7666011,-1.53809 20.76415967,-3.07617 9.99755833,-2.30713 18.45703133,0.76904 7.69043,0.76904 14.611816,0 6.921387,-1.53809 8.459473,-4.61426 5.383301,1.53809 10.766602,2.30713 5.3833,0 7.690429,-4.61426 5.383301,3.84522 13.842774,3.84522 9.228515,0 13.07373,3.84521 2.307129,0.76905 5.383301,-0.76904 3.845215,-2.30713 6.921387,-2.30713 9.997559,2.30713 14.611819,0 5.3833,-3.07617 6.92138,3.07617 6.92139,-3.07617 14.61182,-2.30713 8.45947,0.76905 16.1499,2.30713 8.45948,0.76905 16.1499,1.53809 8.45948,0.76904 16.14991,-1.53809 4.61426,6.15235 12.30468,5.3833 8.45948,-1.53808 17.68799,0 6.92139,1.53809 13.07373,1.53809 6.92139,-0.76904 13.84278,-2.30713 6.92138,-1.53809 13.07373,-2.30713 6.92138,-0.76904 13.84277,1.53809 -2.30713,3.07617 -1.53809,7.69043 0.76905,4.61425 -3.07617,7.69043 -20.76416,0.76904 -39.22119,4.61425 -18.45703,3.07618 -29.99267,11.53565 -2.30713,8.45947 -9.99756,14.61182 -7.69043,6.15234 -5.3833,14.61181 -6.15235,3.84522 -6.15235,12.30469 0,8.45947 -3.07617,13.07373 2.30713,3.84521 1.53809,9.22852 4.61425,4.61425 7.69043,6.92138 -3.84522,7.69043 -9.99756,13.07373 -5.3833,5.3833 -0.76905,13.84278 -2.30712,9.22851 -2.30712,13.07373 0,3.84521 3.84521,8.45947 0,3.07617 -2.30713,3.84521 -1.53808,0.76905 -3.84521,2.30713 0.76904,3.84522 3.07617,4.61426 2.30713,0.76904 5.3833,2.30713 0.76904,4.61426 -0.76904,5.3833 -1.53809,0.76904 -3.07618,2.30713 1.53809,7.69043 -2.30712,11.53564 1.53808,1.53809 2.30712,3.84522 0.76905,2.30713 3.07618,3.84521 3.07617,-1.53808 5.3833,-0.76904 2.30713,0 5.3833,1.53809 -2.30713,9.99755 -7.69043,13.84277 -5.3833,3.07617 -6.92139,8.45947 4.61426,9.22852 7.69043,10.7666 3.84522,0.76905 6.92139,2.30713 -1.53809,3.84522 -4.61426,2.30713 -3.07617,-2.30713 -5.3833,-2.30713 -1.53809,2.30713 -2.30713,5.3833 -0.76904,2.30713 -2.30713,6.15235 3.84522,5.3833 1.53809,8.45947 -2.30713,2.30713 -2.30713,6.92139 9.22851,1.53808 11.53564,8.45947 -6.15234,1.53809 -7.69043,7.69043 -1.53808,5.3833 -3.84521,9.22851 35.37598,1.53809 67.67578,-3.84521 32.2998,-5.3833 66.1377,-3.84521 9.99755,0 19.99511,-2.30713 9.99756,-2.30713 20.76416,5.3833 2.30713,-2.30713 4.61426,-2.30713 2.30713,0 4.61426,0.76904 2.30713,0 4.61426,0 2.30713,0 3.84521,-1.53808 13.84277,4.61425 26.91651,4.61425 13.84277,-0.76904 26.9165,-4.61425 1.53808,8.45947 4.61426,7.69042 3.84521,-0.76904 5.3833,-1.53808 -0.76905,-8.45947 -0.76905,-17.68799 0.76905,-9.22852 -0.76904,-15.38086 1.53809,-8.45947 0.76904,-23.07129 -0.76904,-15.38086 -2.30712,-28.45459 -3.84522,-9.22851 -2.30713,-10.7666 2.30713,-1.53809 3.84521,-3.84521 0.76904,-19.22608 1.53809,-39.99024 0.76904,-21.5332 -2.30713,-42.29736 -6.15235,-4.61426 -3.84522,-9.99756 2.30713,-6.15234 0,-13.07373 1.53809,-6.92139 -1.53808,-10.7666 -3.07617,-3.84522 -5.3833,-12.30469 -4.61426,-13.07373 -10.7666,-16.1499 -6.15235,-3.84522 -10.76661,-0.76905 -8.45947,-4.61425 -12.30468,-5.3833 -3.84522,-0.76904 -12.30469,0 1.53808,-4.61425 -5.3833,-5.3833 -6.92139,-0.76904 -15.38086,-0.76904 -8.45947,0 -16.1499,0.76904 -6.92139,0 -9.22852,0 -3.07617,-0.76904 -3.84521,-2.30713 -0.76905,-2.30712 -2.30713,-3.84521 1.53808,-3.84522 3.07617,-6.92139 2.30713,-3.07617 3.84521,-6.92138 5.3833,0.76904 12.30469,-3.07618 6.92139,-4.61425 13.07373,-0.76904 6.15235,-2.30713 9.22852,-3.07617 5.3833,-1.53809 8.45947,-2.30713 3.07617,-1.53809 5.3833,0.76904 6.92139,-3.07617 16.1499,-3.84521 9.99756,-0.76904 17.68799,2.30713 6.15235,-3.07617 13.84277,-3.07617 8.45948,-0.76905 13.84278,-4.61426 6.15234,2.30713 11.53564,1.53808 5.3833,-1.53808 10.7666,0.76905 10.76661,-3.84522 24.60938,-0.76905 14.61182,2.30713 25.37842,2.30713 9.99756,0.76905 17.68799,1.53809 7.69043,0.76904 14.61181,0.76904 10.7666,-0.76904 20.76416,0.76904 9.99756,1.53809 20.76416,3.84522 9.99756,-3.84522 19.99512,-2.30713 9.99756,1.53809 20.76416,1.53809 6.15234,-5.3833 16.91895,-5.3833 11.53564,-0.76905 19.99511,3.07617 z M 182.12269,766.50476 q -1.53809,2.30713 -6.15235,3.84522 -3.84521,1.53808 -5.3833,-3.07618 2.30713,-1.53808 4.61426,-1.53808 3.07617,-0.76905 6.92139,0.76904 z m 9.22851,98.4375 q -5.3833,0.76904 -9.99755,7.69043 -3.84522,6.15234 -7.69043,2.30713 5.3833,-6.92139 7.69043,-8.45947 3.07617,-2.30713 5.3833,-6.92139 l 4.61425,5.3833 z m -9.22851,39.22119 q -1.53809,3.07617 -5.3833,4.61426 -3.07617,0.76904 -3.07617,-3.84521 2.30712,1.53808 3.84521,0 1.53809,-1.53809 4.61426,-0.76905 z m -3.84522,6.15235 -6.15234,7.69043 q 1.53809,-2.30713 3.07617,-3.07618 1.53809,-1.53808 3.07617,-4.61425 z M 525.11585,542.71326 q -6.15234,1.53808 -8.45947,6.92138 3.07617,-1.53808 5.3833,-2.30713 2.30713,-0.76904 3.07617,-4.61425 z m -16.1499,63.83056 q -1.53809,-4.61425 -3.84521,-2.30713 -2.30713,1.53809 -5.38331,0 3.07618,2.30713 3.84522,3.07618 1.53809,0.76904 5.3833,-0.76905 z m -26.9165,-18.45703 q -3.07618,-3.84521 -7.69043,-1.53808 -4.61426,2.30712 -4.61426,6.15234 0.76904,0 5.3833,-0.76904 4.61426,-0.76905 6.92139,-3.84522 z m -46.91162,-27.68554 q -4.61426,0 -10.76661,3.07617 -6.15234,2.30713 -7.69043,8.45947 6.15235,3.07617 6.92139,-1.53809 1.53809,-4.61425 4.61426,-6.15234 l 6.92139,-3.84521 z M 412.06654,548.8656 q -5.3833,0.76904 -8.45948,0.76904 -2.30713,0 -4.61425,0 3.07617,6.92139 6.15234,5.3833 3.84521,-2.30712 6.92139,-6.15234 z m 133.81347,6.15234 q -6.15234,2.30713 -11.53564,4.61426 -5.3833,2.30713 -11.53565,3.07617 -2.30713,6.92139 -6.92138,7.69043 -4.61426,0.76905 -9.22852,4.61426 -2.30713,6.15235 -7.69043,8.45947 -4.61426,2.30713 -8.45947,4.61426 -1.53809,-2.30713 -3.84522,-2.30713 -1.53808,-0.76904 -3.84521,-1.53808 -0.76904,3.84521 2.30713,3.84521 3.07617,0 3.84521,2.30713 -3.84521,1.53809 -7.69043,5.3833 -3.84521,3.07617 -9.22851,0 -0.76905,3.84522 -3.84522,3.07617 -3.07617,-0.76904 -6.15234,0.76905 0.76904,6.15234 -4.61426,7.69043 -5.3833,0.76904 -6.15234,6.92138 -1.53809,-6.15234 0,-6.92138 2.30713,-0.76905 0.76904,-1.53809 4.61426,-5.3833 1.53809,-5.3833 -2.30713,0 -0.76905,-3.07617 6.92139,-7.69043 13.07373,-10.7666 6.15235,-3.07618 11.53565,-8.45948 2.30713,0.76905 4.61426,-0.76904 3.07617,-2.30713 6.15234,-3.07617 -0.76904,-4.61426 2.30713,-4.61426 3.07617,-0.76904 4.61426,-1.53809 -1.53809,-3.07617 0,-3.84521 2.30713,-1.53809 4.61425,-2.30713 3.07618,-0.76904 5.38331,-1.53808 2.30712,-1.53809 1.53808,-5.38331 -9.22851,0.76905 -9.22851,3.07618 0.76904,1.53808 -0.76905,3.07617 -9.22851,2.30713 -14.61181,5.3833 -4.61426,2.30713 -13.84278,6.15234 -3.84521,-1.53808 0,-3.07617 4.61426,-1.53809 8.45948,-3.07617 1.53808,-6.15234 6.15234,-7.69043 4.61426,-2.30713 9.22851,-4.61426 3.07618,-6.15234 3.84522,-6.92139 1.53809,-1.53808 4.61426,-0.76904 0.76904,-3.07617 2.30713,-4.61426 2.30713,-1.53808 4.61425,-3.84521 -5.3833,-3.07617 -9.22851,2.30713 -3.07617,4.61426 -9.22852,3.07617 0,5.3833 -3.84521,6.92139 -3.07617,0.76904 -6.92139,2.30713 0,5.3833 -4.61426,7.69043 -3.84521,2.30712 -5.3833,1.53808 -4.61426,6.92139 -6.15234,6.92139 -1.53809,-3.84522 -4.61426,-1.53809 -2.30713,1.53809 -3.84521,0.76904 0,-3.84521 3.07617,-3.84521 3.84521,-0.76904 4.61426,-4.61426 -7.69043,0 -8.45948,-2.30713 3.07618,0 4.61426,-1.53808 2.30713,-2.30713 3.84522,-4.61426 1.53808,-2.30713 3.07617,-3.07617 1.53808,-1.53809 3.84521,0.76904 -5.3833,-6.15234 -6.92138,-2.30713 -1.53809,3.07617 -7.69043,2.30713 -5.3833,7.69043 -13.84278,13.07373 -8.45947,4.61426 -15.38086,10.7666 3.84522,6.92139 0.76905,7.69043 -2.30713,0.76905 -4.61426,0 1.53808,2.30713 2.30713,3.84522 1.53808,1.53808 0,5.3833 5.3833,8.45947 7.69043,7.69043 2.30713,-1.53809 3.84521,0 -1.53808,3.84521 -3.84521,6.15234 -2.30713,2.30713 -3.07617,6.15235 8.45947,8.45947 13.07373,6.92138 4.61425,-2.30713 7.69043,0 -2.30713,1.53809 -3.84522,3.07617 -1.53809,1.53809 -6.15234,0 -1.53809,6.15235 -5.3833,10.76661 -3.07618,4.61425 0,13.07373 3.07617,-2.30713 4.61425,0 1.53809,1.53808 5.3833,2.30712 -3.07617,5.38331 -3.84521,9.22852 -0.76904,3.07617 -4.61426,6.15234 0.76905,2.30713 1.53809,5.3833 0.76904,2.30713 -3.07617,3.84522 0.76904,10.7666 0.76904,13.84277 0.76904,2.30713 -3.84522,3.07617 1.53809,2.30713 2.30713,6.15235 0.76905,3.07617 2.30713,6.92139 14.61182,-4.61426 23.07129,-15.38086 8.45947,-10.76661 21.5332,-16.91895 6.15235,-7.69043 12.30469,-14.61182 6.92139,-6.92138 10.7666,-16.91894 4.61426,3.07617 2.30713,8.45947 -2.30713,5.3833 -3.07617,9.22852 -13.07373,9.22851 -25.37842,19.99511 -12.30469,10.76661 -23.07129,21.53321 -6.92138,7.69043 -12.30468,9.22851 -4.61426,1.53809 -6.15235,6.15235 6.92139,-2.30713 11.53565,-6.15235 4.61425,-3.84521 10.7666,-5.3833 -1.53809,4.61426 -6.92139,7.69043 -4.61426,3.07617 -9.22851,6.15235 -4.61426,3.07617 -7.69043,6.92138 -2.30713,3.07617 0,8.45948 3.07617,-0.76905 9.22851,-6.92139 6.15235,-6.92139 14.61182,-10.7666 6.92138,-5.3833 10.7666,-9.99756 3.84521,-5.3833 9.22852,-9.22852 2.30712,3.07617 3.84521,-0.76904 2.30713,-4.61426 6.15234,-2.30713 -8.45947,-0.76904 -14.61181,4.61426 -6.15235,5.3833 -13.84278,5.3833 2.30713,-3.07617 6.15235,-5.3833 4.61426,-2.30713 8.45947,-3.84522 4.61426,-2.30713 7.69043,-4.61425 3.84522,-2.30713 4.61426,-6.15235 3.07617,0.76905 3.84521,-0.76904 1.53809,-1.53809 4.61426,-0.76904 0.76904,-7.69043 8.45947,-7.69043 3.84522,-5.3833 8.45948,-7.69043 5.3833,-2.30713 9.99755,-6.15235 0.76905,-7.69043 1.53809,-19.22607 0.76904,-11.53565 3.07617,-22.30225 -5.3833,3.07617 -9.22851,4.61426 -3.84522,0.76904 -6.92139,-0.76904 3.84521,-9.22852 5.3833,-9.22852 2.30713,-0.76904 1.53809,-3.07617 -7.69043,3.07617 -9.99756,5.3833 -2.30713,1.53809 -4.61426,2.30713 -5.3833,0 -9.99756,2.30713 -4.61426,2.30713 -5.3833,5.3833 -6.92139,4.61426 -10.7666,3.07617 -3.84522,-1.53808 -6.92139,-3.07617 -2.30713,3.07617 -0.76904,3.84521 2.30713,0.76905 0,4.61426 1.53809,0.76905 3.84521,-0.76904 3.07618,-1.53809 4.61426,0.76904 -3.84521,3.07617 -9.22851,2.30713 -5.3833,-1.53808 -6.15235,4.61426 -7.69043,0.76904 -9.99756,6.15234 -1.53808,5.3833 -6.15234,6.92139 3.84522,-9.22852 0.76904,-9.22852 -2.30713,0 -3.84521,-1.53808 6.15234,0.76904 7.69043,-1.53809 1.53808,-3.07617 5.3833,-4.61426 3.07617,-6.92138 5.3833,-5.3833 3.07617,0.76905 6.15234,-3.07617 0.76905,-8.45947 3.84522,-8.45947 3.07617,-0.76904 6.15234,-2.30713 6.92139,-4.61426 9.99756,-7.69043 3.07617,-3.07617 7.69043,-6.92139 5.3833,1.53809 8.45947,-1.53808 3.84522,-3.84522 6.15235,-7.69043 3.07617,-4.61426 6.15234,-6.92139 3.84522,-2.30713 9.22852,0 1.53808,-8.45947 8.45947,-14.61182 6.92139,-6.92138 13.84277,-13.07373 z m -142.27295,-16.1499 q -7.69043,0.76904 -13.07373,3.07617 -5.3833,1.53809 -13.07373,3.07618 2.30713,3.84521 5.3833,4.61425 3.84522,0 7.69043,-1.53808 4.61426,-1.53809 7.69043,-3.84522 3.84522,-3.07617 5.3833,-5.3833 z m 113.04932,189.95362 q -7.69043,1.53808 -11.53564,6.15234 -3.84522,3.84521 -9.99756,5.3833 5.3833,4.61426 6.92138,0.76904 2.30713,-3.84521 9.22852,-2.30713 0,-3.84521 2.30713,-4.61425 3.07617,-1.53809 3.07617,-5.3833 z m 1.53809,-32.29981 q -1.53809,1.53809 -3.07618,3.84522 -0.76904,1.53808 -4.61425,0.76904 -4.61426,-0.76904 -11.53565,1.53808 -6.15234,1.53809 -9.99756,5.38331 6.15235,-7.69043 13.07373,-13.07374 7.69043,-6.15234 16.14991,-10.7666 -0.76905,-3.07617 -0.76905,-3.84521 0.76905,-1.53809 0.76905,-5.3833 -13.07373,3.07617 -20.76416,10.7666 -6.92139,6.92139 -15.38086,13.07373 -10.76661,3.07617 -17.68799,9.99756 -6.15235,6.92138 -15.38086,10.7666 -0.76904,5.3833 -4.61426,7.69043 -3.84521,1.53809 -6.15234,5.3833 8.45947,0 13.07373,-3.84521 4.61426,-4.61426 10.7666,-3.84522 -10.7666,10.7666 -31.53076,14.61182 0,3.84521 0,6.15234 0.76904,2.30713 1.53808,4.61426 -0.76904,10.7666 3.07618,13.84277 -3.07618,2.30713 -3.07618,7.69043 0.76905,5.3833 3.07618,7.69043 -3.84522,1.53809 -3.84522,5.3833 0,3.07617 3.07617,5.3833 7.69043,3.84522 9.22852,0 2.30713,-4.61426 0,-8.45947 5.3833,-1.53809 10.7666,-6.92139 -0.76904,3.84522 -3.07617,5.3833 -2.30713,1.53809 -4.61426,3.07618 3.84521,1.53808 6.15234,-0.76905 3.07618,-2.30713 5.3833,-4.61425 2.30713,-3.07618 5.3833,-6.15235 3.07618,-3.07617 6.92139,-4.61426 1.53809,-3.07617 -0.76904,-5.3833 -2.30713,-3.07617 0.76904,-6.15234 3.07617,4.61426 6.15235,6.15234 3.84521,-4.61425 8.45947,-7.69043 4.61426,-3.07617 8.45947,-7.69043 -7.69043,0 -8.45947,-3.07617 -0.76904,-3.07617 1.53808,-3.84521 3.84522,2.30713 5.3833,0.76904 2.30713,-2.30713 4.61426,-1.53809 -3.84521,-6.92138 -1.53808,-8.45947 3.07617,-2.30713 6.15234,-4.61426 7.69043,-5.3833 13.07373,-11.53564 6.15234,-6.92139 3.84522,-17.68799 z m -15.38086,54.60205 q -6.15235,2.30713 -11.53565,6.92139 -4.61426,3.84521 -5.3833,8.45947 7.69043,-7.69043 12.30469,-8.45947 4.61426,-0.76904 4.61426,-6.92139 z m 29.22363,75.36621 q -5.3833,0 -6.92139,2.30713 -0.76904,1.53809 -0.76904,5.3833 5.3833,-1.53808 6.15234,-3.07617 0.76905,-2.30713 1.53809,-4.61426 z m -16.91895,-15.38086 q -5.3833,5.3833 -13.07373,8.45948 -6.92138,3.07617 -8.45947,9.99755 6.15234,-3.84521 13.84277,-5.3833 8.45948,-2.30713 7.69043,-13.07373 z M 482.04945,767.2738 q -10.76661,3.84522 -17.68799,11.53565 -6.15235,6.92138 -16.1499,10.7666 0,6.15234 -5.38331,7.69043 -5.3833,1.53809 -6.15234,7.69043 3.84522,-0.76904 5.3833,-0.76904 1.53809,0 3.84522,-0.76905 4.61425,-6.92138 7.69043,-10.7666 3.07617,-4.61426 7.69043,-3.07617 3.84521,-6.15234 11.53564,-9.99756 7.69043,-4.61426 9.22852,-12.30469 z m 34.60693,-15.38086 q -5.3833,0.76905 -9.22852,3.84522 -3.07617,2.30713 -6.15234,5.3833 -3.07617,2.30713 -6.92139,5.3833 -3.07617,3.07617 -7.69043,3.84522 -6.15234,8.45947 -16.91894,16.1499 -10.7666,7.69043 -20.76416,14.61181 0.76904,6.15235 -4.61426,6.92139 -5.3833,0.76904 -6.15234,6.15234 3.07617,2.30713 6.15234,0 3.07617,-2.30712 6.15234,0 0,-3.07617 2.30713,-3.84521 2.30713,-0.76904 3.84522,-2.30713 -3.07617,4.61426 -6.92139,7.69043 -3.84521,2.30713 -8.45947,3.07617 -2.30713,5.3833 -6.15234,9.99756 -3.07618,3.84522 -0.76905,12.30469 3.07617,-2.30713 5.3833,-4.61426 2.30713,-2.30713 5.3833,-3.84521 1.53809,4.61425 -2.30713,7.69043 -3.84521,2.30712 -6.15234,4.61425 4.61426,1.53809 9.22852,-2.30713 5.3833,-3.84521 9.99756,-0.76904 -6.92139,5.3833 -16.91895,10.7666 -9.22852,4.61426 -7.69043,15.38086 7.69043,-0.76904 12.30469,-5.3833 5.3833,-5.3833 12.30469,-2.30713 -3.07618,-8.45947 1.53808,-8.45947 4.61426,-0.76904 3.07617,-6.92139 1.53809,-1.53808 3.07617,-2.30713 2.30713,-1.53808 5.38331,-0.76904 -0.76905,-6.15234 3.07617,-4.61426 4.61426,0.76905 6.15234,-0.76904 2.30713,-6.15234 7.69043,-9.99756 6.15234,-4.61426 9.99756,-10.7666 3.84521,1.53809 5.3833,0 2.30713,-1.53809 5.3833,-3.07617 -6.92139,-6.15234 -10.7666,-1.53809 -3.07617,4.61426 -9.99756,2.30713 0,5.3833 -3.84521,9.22852 -13.07373,2.30713 -15.38086,6.15234 -2.30713,3.07617 -4.61426,6.15234 3.84521,-6.92138 7.69043,-11.53564 3.84521,-5.3833 12.30469,-6.15234 3.84521,-4.61426 4.61425,-9.22852 1.53809,-4.61426 6.15235,-2.30713 0.76904,-5.3833 -2.30713,-4.61426 -2.30713,0.76905 -3.84522,-2.30712 -4.61425,-0.76905 0,-1.53809 5.3833,-1.53809 8.45948,-1.53809 4.61425,0 11.53564,-1.53808 7.69043,-1.53809 8.45947,-8.45948 -3.07617,0 -6.92138,3.07618 -3.84522,2.30713 -6.15235,-1.53809 5.3833,-1.53809 8.45948,-4.61426 3.84521,-3.07617 3.84521,-9.99756 -13.07373,3.84522 -23.84033,13.07373 -10.7666,9.22852 -19.99512,12.30469 -1.53808,-2.30713 0,-4.61426 2.30713,-2.30712 8.45947,-2.30712 2.30713,-1.53809 3.84522,-4.61426 1.53809,-3.07617 6.15234,-0.76905 2.30713,-6.15234 3.84522,-6.92138 2.30713,-1.53809 6.15234,-2.30713 5.3833,-1.53809 7.69043,-6.15234 2.30713,-4.61426 8.45947,-3.84522 0,-3.07617 0.76905,-6.92139 0.76904,-3.84521 0.76904,-7.69043 z m -44.60449,93.82325 q -5.3833,0 -7.69043,6.15234 3.84521,1.53809 4.61426,-1.53809 1.53808,-3.07617 3.07617,-4.61425 z m 40.75927,-13.07373 q -3.84521,0 -6.15234,0.76904 -2.30713,0.76904 -4.61426,1.53808 -14.61181,9.99756 -24.60937,17.68799 -9.99756,7.69043 -20.76416,16.14991 -3.84522,3.07617 -9.22852,6.15234 -4.61426,2.30713 -9.22851,5.3833 -3.84522,3.07617 -6.92139,6.92139 -2.30713,3.84521 -1.53809,9.22851 -2.30712,2.30713 -1.53808,4.61426 0.76904,2.30713 0.76904,6.15234 3.84522,-0.76904 6.15235,-3.07617 2.30712,-2.30713 7.69042,-2.30713 3.84522,-9.99756 11.53565,-12.30468 7.69043,-2.30713 13.84277,-6.15235 7.69043,-6.92138 15.38086,-13.07373 0,-1.53808 3.07617,-2.30713 3.07618,-0.76904 4.61426,-2.30713 -1.53808,5.3833 -8.45947,12.30469 -6.15234,6.15234 -13.07373,9.99756 6.92139,1.53809 10.7666,-2.30713 3.84522,-4.61426 9.99756,-3.84521 1.53808,-3.07618 3.07617,-5.3833 2.30713,-2.30713 6.92139,-1.53809 0.76904,-3.07617 3.07617,-4.61426 3.07617,-1.53808 5.3833,-3.07617 2.30713,-1.53809 3.07617,-3.84522 1.53809,-2.30712 0,-6.15234 -3.84521,0 -8.45947,4.61426 -4.61426,3.84521 -7.69043,-3.07617 2.30713,-0.76905 3.07617,-2.30713 1.53809,-1.53809 5.3833,0 0,-5.3833 2.30713,-4.61426 2.30713,0 4.61426,-1.53809 1.53808,-5.3833 1.53808,-9.22851 0,-3.84522 0,-8.45947 z m -349.1455,-246.8628 q -6.15235,4.61426 -13.07373,9.22852 -6.15235,3.84521 -12.30469,9.99756 10.7666,-3.07617 13.84277,-6.92139 3.07617,-3.84521 9.22852,-5.3833 l 2.30713,-6.92139 z m 345.30029,292.23633 q -1.53809,2.30713 -5.3833,3.07617 -3.07617,0.76905 -3.84522,3.84522 -13.07373,6.15234 -24.60937,11.53564 -11.53565,4.61426 -19.99512,13.07373 -9.99756,3.84522 -17.68799,9.99756 -7.69043,6.15235 -10.7666,16.91895 -1.53808,7.69043 -0.76904,13.07373 1.53809,4.61426 -0.76904,8.45947 9.99756,-3.07617 14.61181,-11.53564 4.61426,-8.45948 15.38086,-12.30469 0.76905,-3.84522 3.07617,-5.3833 3.07618,-2.30713 4.61426,-5.3833 5.3833,-2.30713 7.69043,-3.84522 2.30713,-1.53808 0,-5.3833 6.15235,0 7.69043,-3.07617 2.30713,-3.84522 7.69043,-3.84522 4.61426,-8.45947 13.07373,-13.84277 9.22852,-6.15234 9.99756,-15.38086 z M 117.52308,572.70593 q -0.76904,2.30713 -3.07617,3.07617 -1.53809,0.76905 -3.07617,4.61426 3.84521,0 5.3833,-2.30713 2.30712,-3.07617 0.76904,-5.3833 z m 4.61426,-27.68554 q -6.15235,-1.53809 -10.7666,2.30712 -3.84522,3.84522 -7.69043,2.30713 3.07617,-1.53808 4.61425,-3.84521 1.53809,-2.30713 5.3833,-3.84522 -3.84521,-2.30713 -9.99755,-1.53808 -6.152348,0 -8.459477,2.30713 -3.845215,-4.61426 -8.459473,-1.53809 -3.845215,2.30713 -9.228515,2.30713 -4.614258,-4.61426 -6.152344,0 -1.538086,4.61426 -5.383301,2.30713 -2.307129,-3.84522 -8.459473,-1.53809 -5.3833,1.53809 -6.152343,12.30469 l 7.690429,-6.15234 q 6.921387,-3.84522 6.921387,-2.30713 0,1.53808 2.307129,1.53808 1.538086,-3.84521 3.845215,-3.84521 2.307129,0 5.383301,-2.30713 -12.304688,9.99756 -21.533204,23.07129 8.459473,-1.53809 9.228516,-2.30713 0.769043,-1.53809 1.538086,-3.07617 2.307129,2.30713 0,4.61426 -1.538086,2.30712 0.769043,4.61425 -5.383301,6.15235 -10.766602,13.84278 3.076172,3.07617 0.769043,5.3833 -1.538086,2.30713 0,6.15234 12.304688,-5.3833 14.611817,-14.61181 16.918945,-10.76661 28.454586,-17.68799 12.30469,-7.69043 21.53321,-18.45703 z m 73.05908,2.30712 q -9.22852,-1.53808 -20.76416,-3.07617 -10.7666,-1.53808 -21.5332,-2.30713 -8.45948,8.45948 -16.14991,15.38086 -7.69043,6.92139 -16.1499,13.07373 11.53565,-5.3833 23.07129,-12.30468 12.30469,-6.92139 25.37842,-6.92139 0.76904,8.45947 -2.30713,11.53564 -3.07617,3.07618 -4.61426,9.22852 -7.69043,6.15234 -10.7666,8.45947 -2.30713,1.53809 -3.84522,0 4.61426,-6.15234 9.99756,-10.7666 6.15235,-5.3833 9.22852,-13.07373 -19.22608,3.07617 -29.22363,13.07373 -9.99756,9.22852 -20.76416,15.38086 -1.53809,1.53809 -4.61426,1.53809 -2.30713,0 -3.84522,1.53808 -5.3833,5.3833 -6.92138,5.3833 -0.76905,0 -2.307132,0.76905 -6.152344,3.07617 -11.535645,9.22851 -4.614258,5.3833 -12.304687,8.45947 -2.307129,6.92139 -9.228516,9.99756 -6.921387,3.07617 -13.07373,6.92139 0,18.45703 1.538085,36.14502 2.307129,17.68799 3.076172,37.6831 22.302246,-14.61181 41.528321,-38.45214 3.076172,-4.61426 5.383302,-4.61426 3.07617,-0.76904 4.61426,-0.76904 11.53564,-7.69043 13.84277,-13.84278 3.07617,-6.92139 9.22852,-8.45947 8.45947,-9.22852 14.61181,-15.38086 6.15235,-6.92139 12.30469,-15.38086 -8.45947,-0.76904 -14.61182,6.92139 -5.3833,7.69043 -13.84277,9.99756 -2.30713,6.15234 -4.61426,8.45947 -1.53808,1.53808 -8.45947,3.84521 -1.53809,3.07617 -5.3833,7.69043 -3.07617,3.84522 -6.92139,-1.53808 6.15235,-3.07618 9.22852,-7.69043 3.84521,-5.3833 9.99756,-7.69043 4.61425,-4.61426 6.92138,-6.92139 2.30713,-3.07617 4.61426,-6.92139 -6.92139,0 -9.99756,3.84522 -3.07617,3.84521 -10.7666,3.84521 0,3.07618 -4.61426,6.15235 -3.84521,2.30713 -9.99756,3.84521 -3.076168,4.61426 -5.383297,6.92139 -2.307129,2.30713 -6.921387,3.07617 -0.769043,7.69043 -9.228516,9.99756 -7.690429,2.30713 -12.304687,6.15234 12.304687,-22.30224 29.223633,-33.83789 16.918944,-12.30468 32.299804,-29.99267 6.15234,-0.76905 9.22852,-6.15235 3.07617,-5.3833 9.99755,-3.84521 -0.76904,3.07617 -3.84521,3.84521 -2.30713,0.76905 -4.61426,2.30713 -8.45947,6.92139 -14.61181,13.84278 -6.15235,6.92138 -16.14991,11.53564 -1.53808,6.92139 -6.92138,9.22852 -5.383304,1.53808 -8.459476,7.69043 3.845215,0 4.614258,-0.76905 1.538086,-1.53808 5.383298,-1.53808 3.07617,-9.22852 16.1499,-13.07373 7.69043,-11.53565 19.99512,-18.45704 13.07373,-6.92138 22.30225,-16.1499 16.1499,-8.45947 23.07129,-23.84033 7.69043,-3.84521 10.7666,-9.22852 z m -71.521,12.30469 q -11.53564,3.84522 -19.22607,12.30469 -6.921388,8.45947 -16.918947,13.07373 -0.769043,-3.84521 0.769043,-4.61426 2.307129,-0.76904 3.076172,-4.61426 -14.611816,4.61426 -19.995117,16.14991 5.383301,0.76904 7.690429,-3.07618 3.076172,-4.61425 6.921387,-3.07617 -4.614258,8.45948 -13.07373,12.30469 -7.69043,3.84522 -16.149903,9.99756 1.538086,3.84521 -0.769043,5.3833 -1.538086,1.53809 0.769043,3.84521 1.538086,-3.07617 9.228516,-4.61425 13.842773,-15.38086 28.45459,-26.14746 15.38086,-11.53565 29.22363,-26.91651 z M 49.078255,538.86804 q -8.459473,-1.53808 -11.535645,-0.76904 -3.076172,0 -3.076172,3.07617 3.845215,0 5.383301,2.30713 1.538086,1.53809 3.845215,3.07617 1.538086,-1.53808 3.845215,-3.07617 3.076172,-2.30713 1.538086,-4.61426 z M 511.27308,894.16589 q -4.61426,0 -8.45947,3.84522 -3.84522,3.84521 -7.69043,6.15234 -0.76905,6.15235 -6.92139,7.69043 -6.15234,0.76904 -10.7666,4.61426 -2.30713,5.3833 -4.61426,7.69043 -2.30713,2.30713 -4.61426,4.61426 -2.30713,2.30713 -4.61426,4.61425 -2.30712,2.30713 -6.92138,2.30713 -1.53809,3.84522 -3.07617,6.92139 -1.53809,3.07617 -6.15235,3.84522 1.53809,4.61425 -1.53808,5.3833 -2.30713,0 -2.30713,3.07617 3.84521,0 6.15234,-1.53809 3.07617,-2.30713 6.15235,-0.76904 9.99755,-6.92139 9.99755,-4.61426 -6.15234,2.30713 -9.99755,7.69043 -3.07618,4.61426 -11.53565,5.3833 -8.45947,6.92139 -15.38086,15.38086 -6.15234,7.69043 -0.76904,16.1499 7.69043,2.30713 8.45947,2.30713 1.53809,0 0.76904,1.53809 -6.15234,2.30713 -8.45947,8.45949 -1.53808,5.3833 -4.61426,9.9975 3.07618,-1.538 6.15235,-3.0761 3.84521,-2.3072 7.69043,-0.7691 -3.84522,3.8452 -7.69043,6.9214 -3.84522,2.3071 -3.84522,8.4595 -3.07617,3.0762 -3.07617,6.9214 0,3.8452 0.76904,6.9214 0.76905,3.0761 2.30713,3.8452 2.30713,0.769 6.15235,-2.3072 2.30713,-6.9213 6.92138,-6.9213 6.15235,-6.1524 5.3833,-6.1524 0,-0.769 0.76905,-3.0762 3.84521,-0.769 6.15234,-2.3071 3.07617,-2.3071 7.69043,-2.3071 1.53809,-4.6143 6.15234,-9.2285 4.61426,-4.6143 10.76661,-3.0762 3.07617,-8.4595 6.92138,-10.76661 4.61426,-3.07617 8.45947,-5.3833 2.30713,3.84522 -0.76904,6.15235 -3.07617,1.53806 -3.84521,6.15236 6.15234,-1.5381 9.99756,-3.0762 4.61425,-1.5381 11.53564,-3.07616 0.76904,-3.84522 0,-7.69043 0,-4.61426 -5.3833,-5.3833 0.76904,3.84521 -1.53809,4.61425 -2.30713,0 -3.84521,2.30713 3.07617,-6.92138 5.3833,-13.07373 2.30713,-6.92138 5.3833,-13.84277 l -12.30469,-1.53809 q 3.07617,-3.84521 5.3833,-6.15234 3.07618,-2.30713 7.69043,-3.07617 2.30713,-19.22608 -9.22851,-25.37842 6.92138,-6.92139 8.45947,-9.22852 -0.76904,-3.84521 -4.61426,-3.84521 -3.84521,0 -4.61426,-3.07617 8.45948,-1.53809 9.99756,-6.92139 1.53809,-6.15234 1.53809,-12.30469 z M 159.82044,621.15564 q -15.38086,9.99756 -26.14746,20.76416 -9.99756,9.99756 -19.99512,20.76416 -7.69043,6.15234 -12.30468,8.45947 -3.845218,1.53809 -5.383304,7.69043 3.845215,0 5.383304,-2.30713 1.53808,-3.07617 5.3833,-1.53808 13.07373,-17.68799 26.9165,-23.84033 14.61182,-6.92139 25.37842,-17.68799 0,-3.07617 0,-5.3833 0.76904,-3.07618 0.76904,-6.92139 z m 352.22168,387.59766 q -3.07617,-1.5381 -6.15234,0 -3.07617,1.5381 -6.92139,0.769 -3.84521,4.6143 -9.99756,6.9214 -6.15234,2.3072 -11.53564,4.6143 -4.61426,4.6142 -9.22852,9.2285 -3.84521,3.8452 -9.99756,5.3833 -4.61425,6.1523 -9.99755,10.7666 -4.61426,4.6143 -12.30469,7.6904 -3.07617,6.1524 -10.7666,9.9976 -6.92139,3.0762 -6.15235,10.7666 3.07617,-3.0762 11.53565,-1.5381 4.61426,-6.1523 8.45947,-11.5356 3.84521,-5.3833 13.07373,-3.8453 9.22852,-10.7666 16.1499,-11.5356 7.69043,-1.5381 11.53565,-7.6904 3.07617,0.769 4.61426,0 2.30712,-1.5381 3.84521,-3.0762 1.53809,-2.3071 3.84521,-3.0762 2.30713,-1.5381 6.15235,-0.769 3.07617,-5.3833 4.61426,-6.9214 2.30713,-2.3071 4.61425,-3.8452 2.30713,-2.3071 3.84522,-4.6143 1.53808,-3.0761 0.76904,-7.6904 z m 34.60694,95.3613 q -1.53809,-4.6142 -4.61426,-6.1523 -3.07617,-2.3071 -6.92139,-4.6143 0,-5.3833 -3.07617,-6.9214 -3.07617,-1.5381 -1.53809,-6.9214 -15.38086,6.1524 -26.9165,11.5357 -11.53565,4.6143 -17.68799,16.1499 17.68799,-1.5381 29.99268,-1.5381 13.07373,0 30.76172,-1.5381 z m -26.91651,-42.2973 q 0,-3.8453 0,-6.9214 0,-3.0762 -1.53808,-4.6143 -2.30713,-9.9975 -3.07618,-13.8428 0,-3.8452 -2.30713,-8.4594 -10.7666,5.3833 -19.22607,11.5356 -8.45947,6.1524 -16.91894,12.3047 -8.45948,2.3071 -16.91895,8.4595 -8.45947,5.3833 -14.61182,11.5356 9.22852,-1.5381 11.53565,-3.0762 3.07617,-2.3071 5.3833,-3.8452 2.30713,6.1524 -0.76904,6.9214 -3.07618,0 -5.3833,1.5381 -13.07374,7.6904 -22.30225,15.3809 -9.22852,7.6904 -23.84033,10.7666 -4.61426,-3.8452 -11.53565,-1.5381 -6.15234,1.5381 -7.69043,7.6904 16.14991,1.5381 29.99268,3.8452 14.61182,1.5381 29.99267,0.7691 3.84522,-3.0762 7.69043,-6.1524 4.61426,-3.8452 8.45948,-4.6142 2.30713,-6.9214 8.45947,-6.9214 6.92139,-0.7691 10.7666,-6.1524 5.3833,-3.0761 11.53565,-8.4594 6.92138,-6.1524 14.61181,-6.1524 1.53809,-3.8452 3.07617,-6.1523 1.53809,-2.3072 4.61426,-3.8452 z M 158.28236,719.59314 q -3.84522,0.76904 -6.15235,3.84521 -1.53808,3.07618 -5.3833,0 4.61426,-6.92138 3.07617,-6.92138 -0.76904,0 -0.76904,-1.53809 1.53809,-6.92138 3.07617,-8.45947 2.30713,-1.53809 3.07617,-5.3833 -8.45947,-3.84522 -13.84277,0 -4.61426,3.84521 -9.99756,8.45947 -6.15234,9.99756 -14.61181,12.30469 -8.45948,2.30713 -7.69043,9.99756 -5.3833,0.76904 -6.15235,2.30713 -0.76904,1.53808 -2.30713,2.30712 -6.15234,1.53809 -8.459469,6.92139 -1.538086,5.3833 -8.459473,3.84522 -2.307129,6.15234 -6.921386,7.69043 -3.845215,1.53808 -7.69043,5.3833 3.076172,-3.07617 4.614258,-6.92139 2.307129,-3.84521 7.690429,-2.30713 0.769043,-4.61426 3.076172,-8.45947 3.076172,-4.61426 7.69043,-0.76904 0.769043,-9.99756 6.152344,-9.22852 4.614255,-6.15234 12.304685,-12.30469 7.69043,-6.92138 16.91895,-10.7666 5.3833,-6.92139 6.92138,-10.7666 1.53809,-4.61426 5.38331,-4.61426 -0.76905,-1.53808 1.53808,-4.61426 2.30713,-3.07617 6.15234,-2.30713 0,-3.07617 2.30713,-6.92138 3.07618,-3.84522 5.3833,-6.92139 2.30713,-3.84521 2.30713,-6.15234 0,-3.07617 -5.3833,-5.3833 2.30713,-3.07617 4.61426,-6.92139 2.30713,-4.61426 1.53809,-8.45947 -5.3833,-0.76905 -6.92139,1.53808 -1.53809,2.30713 -6.92139,0 -4.61425,8.45948 -13.07373,13.07373 -8.45947,3.84522 -14.61181,10.76661 -6.92139,3.84521 -9.99756,7.69043 -2.30713,3.84521 -8.459475,4.61425 -7.69043,7.69043 -15.38086,13.07373 -6.921386,5.3833 -13.842773,11.53565 -6.152344,5.3833 -9.228516,12.30469 -3.076172,6.92138 0.769043,15.38085 -1.538086,6.92139 -2.307129,13.07374 0,6.15234 0.769043,13.07373 9.997559,2.30712 7.69043,5.3833 -1.538086,2.30713 0,4.61425 -4.614258,1.53809 -6.152344,5.38331 -0.769043,3.07617 -0.769043,7.69042 0,4.61426 0.769043,9.22852 0.769043,4.61426 0,7.69043 3.076172,0.76904 3.845215,2.30713 0.769043,0.76904 4.614258,-0.76904 0.769043,-9.22852 3.845215,-9.22852 3.845215,-0.76904 -0.769043,-1.53809 3.845215,-2.30712 6.152344,-6.92138 2.307128,-4.61426 9.228515,-4.61426 -0.769043,3.84521 -3.845215,3.84521 -2.307129,0 -3.076172,1.53809 -3.076171,6.92139 -3.845214,8.45947 -0.769043,0.76905 -0.769043,2.30713 3.845214,1.53809 7.690429,-0.76904 4.614258,-3.07617 1.538086,-6.15234 2.307129,-1.53809 4.614258,0 2.307129,0.76904 3.845215,-2.30713 -3.076172,-3.84522 3.076172,-4.61426 6.152341,-0.76904 4.614261,-4.61426 6.92138,-3.07617 11.53564,-9.22851 5.3833,-6.92139 14.61182,-8.45948 -0.76905,-5.3833 2.30713,-6.15234 3.84521,-1.53809 7.69043,-3.07617 3.07617,-9.22852 6.92138,-11.53565 3.84522,-3.07617 7.69043,-5.3833 3.84522,-2.30713 6.15235,-5.3833 2.30713,-3.84521 0,-10.7666 z m -3.07618,42.29736 q -3.07617,1.53809 -6.92138,3.07617 -3.07617,0.76905 -6.15235,3.07618 3.84522,5.3833 7.69043,1.53808 4.61426,-3.84521 5.3833,-7.69043 z m -9.22851,13.84278 q -6.92139,-3.07618 -10.7666,-3.07618 0.76904,3.84522 3.84521,4.61426 3.07617,0 6.92139,-1.53808 z m 295.3125,300.69582 q -1.53809,-4.6143 -3.84522,-1.5381 -2.30712,3.0762 -6.15234,1.5381 1.53809,4.6142 3.84522,2.3071 2.30712,-3.0762 6.15234,-2.3071 z M 155.20618,828.0282 q -1.53808,-1.53809 -4.61425,-0.76904 -2.30713,0 -3.84522,0.76904 -3.84521,2.30713 -5.3833,4.61426 -0.76904,2.30712 -3.84521,3.07617 9.99755,-0.76905 13.07373,-3.07617 3.07617,-2.30713 4.61425,-4.61426 z m 0.76905,-83.05664 q -6.92139,1.53808 -11.53565,7.69043 -3.84521,5.3833 -9.22851,6.15234 -1.53809,4.61426 -4.61426,6.92139 -3.07617,1.53808 -6.92139,3.84521 -3.07617,1.53809 -6.92138,3.84522 -3.07618,2.30713 -3.84522,6.92138 -6.92139,5.3833 -8.45947,6.15235 -8.459474,6.15234 -13.073732,9.22851 -4.614258,2.30713 -9.228516,3.84522 -4.614257,7.69043 -9.228515,11.53564 -3.845215,3.84522 -12.304688,2.30713 -0.769043,8.45947 -0.769043,13.84278 0.769043,5.3833 2.307129,11.53564 3.845215,0 6.921387,-0.76904 3.845215,-0.76905 5.383301,0.76904 -1.538086,-6.92139 0.769043,-6.92139 3.076172,-0.76904 6.921386,-1.53808 6.921387,-7.69043 5.383301,-9.22852 -0.769043,-1.53808 0.769043,-2.30713 3.845215,2.30713 7.69043,-0.76904 3.845215,-3.07617 8.459474,-0.76904 -8.459474,2.30713 -11.535646,9.22851 -3.076172,6.15235 -9.228516,7.69043 -6.921386,4.61426 -6.921386,6.15235 0,1.53808 -1.538086,3.07617 -9.228516,6.15234 -14.611817,17.68799 -4.614258,11.53564 1.538086,21.5332 4.614258,-8.45947 7.69043,-10.7666 3.845215,-2.30713 2.307129,-6.15235 3.845215,-1.53808 7.690429,-1.53808 4.614258,-0.76905 3.076172,3.84521 -2.307129,4.61426 -6.152343,5.3833 -3.845215,0 -6.921387,0.76905 -1.538086,8.45947 -4.614258,9.22851 -3.076172,0.76904 -4.614258,0.76904 -1.538086,5.38331 -0.769043,10.76661 0.769043,4.61425 0.769043,9.22851 1.538086,-1.53808 3.076172,-3.07617 1.538086,-1.53809 4.614258,-1.53809 3.845215,-3.84521 7.69043,-3.84521 1.538086,-7.69043 4.614257,-9.99756 3.845215,-3.07617 7.69043,-4.61426 5.383301,0.76905 8.459473,2.30713 3.076172,0.76904 6.921391,0 -3.845219,3.84522 -9.997563,7.69043 -5.383301,3.07617 -11.535645,6.92139 -4.614257,10.7666 -9.997558,9.22851 -2.307129,5.3833 -4.614258,9.22852 -1.538086,3.84521 -7.69043,3.84521 0.769043,3.84522 0.769043,6.15235 0.769043,2.30713 0.769043,6.15234 7.69043,-9.99756 13.073731,-7.69043 1.538086,-3.07617 3.845215,-5.3833 3.076171,-3.07617 7.690429,-3.07617 6.152344,-6.15234 6.921387,-7.69043 1.538086,-1.53809 4.614258,-2.30713 0,-6.15234 4.614258,-6.92139 4.61426,-1.53808 8.45947,-3.84521 3.07617,-8.45947 9.22852,-12.30469 6.92138,-4.61426 13.07373,-6.92138 1.53808,-5.38331 6.15234,-8.45948 4.61426,-3.84521 8.45947,-7.69043 3.84522,-3.84521 5.38331,-7.69043 2.30712,-4.61425 0.76904,-9.99756 -6.15235,-1.53808 -8.45947,1.53809 -2.30713,2.30713 -6.92139,2.30713 -0.76904,3.07617 -3.07617,4.61426 -1.53809,1.53808 -3.07617,3.84521 -3.07618,6.15235 -6.92139,8.45947 -3.84522,1.53809 -7.69043,0.76905 3.84521,3.84521 -0.76904,6.92138 -3.84522,3.07618 -6.15235,5.38331 -5.3833,0 -6.15234,2.30712 0,2.30713 -3.07617,3.07618 l -11.535648,-4.61426 q 6.921387,-1.53809 11.535648,-5.3833 5.3833,-4.61426 11.53564,-6.92139 -0.76904,-10.7666 4.61426,-10.7666 3.07617,-0.76904 6.92139,-7.69043 3.84521,-6.92139 8.45947,-3.84522 -3.84522,-6.92138 2.30713,-9.22851 6.15234,-2.30713 7.69043,-6.92139 6.15234,-6.15234 7.69043,-9.22851 2.30713,-3.84522 3.84521,-7.69043 -8.45947,0.76904 -13.07373,7.69043 -4.61426,6.92138 -13.07373,5.3833 -4.61426,3.84521 -6.15234,5.3833 -0.76905,0.76904 -2.30713,0.76904 1.53808,-10.7666 8.45947,-9.22851 -0.76904,-2.30713 2.30713,-6.15235 3.07617,-4.61426 6.92139,-2.30713 1.53808,-6.15234 7.69043,-7.69043 6.15234,-2.30713 9.99755,-6.15234 -3.84521,-4.61426 -2.30712,-8.45947 2.30712,-4.61426 2.30712,-10.7666 -3.84521,0.76904 -6.15234,3.84521 -1.53809,2.30713 -6.15234,0.76904 -3.07617,3.84522 -5.3833,7.69043 -2.30713,3.84522 -8.45948,3.84522 -2.30713,4.61426 -3.84521,6.92138 -0.76904,1.53809 -4.61426,0.76905 -6.92139,3.84521 -9.22851,1.53808 -1.53809,-2.30713 -3.07618,-0.76904 6.15235,-5.3833 6.92139,-4.61426 0.76904,0 1.53809,0.76905 2.30712,-2.30713 5.3833,-0.76905 3.07617,1.53809 3.07617,-2.30713 -2.30713,-3.84521 -4.61426,-4.61425 -1.53809,-1.53809 -1.53809,-3.07618 7.69043,0 8.45948,0 0.76904,-0.76904 2.30713,-3.84521 -1.53809,-3.07617 -0.76905,-4.61426 1.53809,-2.30713 5.3833,-3.07617 4.61426,-9.99756 6.92139,-13.84277 2.30713,-3.84522 7.69043,-2.30713 1.53809,-3.84522 3.84522,-6.15235 3.07617,-3.07617 3.07617,-9.22851 z m -2.30713,161.49902 q -4.61426,-0.76904 -3.84522,-4.61426 1.53809,-4.61425 3.07618,-8.45947 2.30712,-4.61426 2.30712,-8.45947 0.76905,-4.61426 -3.07617,-8.45947 -3.07617,5.3833 -9.99756,6.92138 -6.92138,1.53809 -9.22851,7.69043 -3.84522,2.30713 -6.15235,3.07617 -2.30712,0.76905 -4.61425,0 -6.15235,4.61426 -7.69043,9.99756 -0.76905,5.3833 -6.92139,5.3833 -6.15234,6.92139 -5.3833,6.92139 0.76904,0 1.53809,0.76904 -6.921391,3.84522 -6.152348,4.61426 1.538086,0 0,1.53809 -6.152344,6.15234 -8.459473,3.84521 -2.307129,-2.30713 -1.538086,0.76904 -1.538086,3.84522 -3.845215,5.3833 -1.538086,1.53809 -6.152343,2.30713 -0.769043,4.61426 -2.307129,8.45948 -1.538086,3.07617 -7.69043,1.53808 -0.769043,5.3833 -3.076172,10.7666 -2.307129,5.3833 0,13.84278 7.69043,3.84521 8.459473,4.61426 1.538086,0.76904 2.307129,-1.53809 -0.769043,-3.84522 3.076172,-3.07617 3.845214,0.76904 9.997558,-0.76905 -7.69043,-4.61425 -7.69043,-3.07617 0.769043,1.53809 -0.769043,2.30713 -3.076171,-8.45947 0.769043,-9.22851 4.614258,-0.76905 8.459473,-1.53809 4.614258,1.53809 6.921387,-0.76904 2.307129,-3.07617 3.845215,-5.3833 -0.769043,-3.07618 -0.769043,-9.22852 6.152342,-1.53809 9.228512,-6.15234 3.07618,-5.3833 10.7666,-6.92139 2.30713,-1.53809 8.45948,-1.53809 2.30713,-6.15234 3.84521,-5.3833 2.30713,0 4.61426,0 1.53809,-3.84521 0.76904,-6.15234 -0.76904,-2.30713 -0.76904,-6.15234 1.53809,5.3833 3.07617,6.15234 2.30713,0 1.53809,3.07617 7.69043,0.76904 9.99756,-3.84521 3.07617,-5.3833 3.07617,-9.22852 z m -1.53809,39.22119 q 0.76905,-5.3833 1.53809,-13.07373 1.53808,-8.45947 -4.61426,-9.99756 -1.53809,2.30713 -8.45947,1.53809 -2.30713,4.61426 -4.61426,6.92139 -2.30713,2.30712 -4.61426,4.61425 -1.53808,2.30713 -3.84521,4.61426 -2.30713,1.53809 -6.15235,0.76904 -2.30713,5.38331 -2.30713,7.69043 0,1.53809 -2.30712,3.07618 -1.53809,-1.53809 -5.3833,-0.76905 -3.07618,0 -3.84522,1.53809 -6.92139,6.92139 -15.380859,17.68799 -7.69043,10.7666 -19.226074,14.61181 -0.769043,3.84522 -3.076172,6.92139 -2.307129,2.30713 -3.845215,5.3833 -1.538086,2.30713 -3.076172,6.15235 -0.769043,3.8452 0.769043,9.2285 7.69043,-4.6142 15.380859,-9.2285 8.459473,-5.38331 12.304688,-14.61182 6.152344,-1.53809 9.228512,-5.3833 3.07618,-3.84522 8.45948,-5.3833 0,-6.15235 3.84521,-4.61426 4.61426,1.53809 7.69043,-1.53809 0,-5.3833 3.07617,-9.22851 3.07617,-3.84522 6.92139,-6.15235 4.61426,-3.07617 9.22852,-5.3833 4.61425,-3.07617 7.69042,-6.92138 l 4.61426,1.53808 z m 34.60694,109.97313 q -7.69043,-1.5381 -10.76661,-1.5381 3.84522,0.7691 6.92139,3.0762 3.07617,2.3071 3.84522,-1.5381 z m -31.53077,-98.43748 q -8.45947,-0.76905 -11.53564,3.07617 -2.30713,3.07617 -7.69043,3.07617 -3.07617,8.45947 -4.61426,9.22852 -1.53808,0.76904 -3.84521,0 -0.76905,3.84521 -4.61426,7.69043 -3.07617,3.84521 -6.92139,0 -0.76904,9.22851 -8.45947,12.30468 -3.07617,3.84522 -5.3833,3.84522 -1.53809,-0.76904 -2.307129,0.76904 -0.769043,5.38335 -2.307129,6.15235 -0.769043,0 -4.614258,-0.769 -3.076172,9.9975 -5.383301,10.7666 -1.538086,0 -3.076172,2.3071 -9.997558,2.3071 -13.07373,13.0737 -3.845215,3.0762 -7.69043,6.9214 -3.076172,3.8452 -1.538086,9.2285 9.997559,-3.8452 10.766602,-7.6904 1.538086,-3.8452 7.690429,-3.0762 6.921387,-10.7666 13.073731,-14.6118 6.152344,-3.8452 12.304683,-7.6904 9.22852,-8.4595 14.61182,-16.14993 6.15234,-8.45948 16.91895,-10.76661 3.07617,-4.61425 4.61425,-4.61425 1.53809,-0.76905 4.61426,-1.53809 -3.84521,-1.53809 0,-3.84521 4.61426,-3.07618 6.15235,-5.38331 -1.53809,-3.84521 0.76904,-5.3833 3.07617,-1.53808 1.53808,-6.92138 z m 19.22608,146.88718 q -6.15235,-6.1523 -8.45947,-9.2285 -1.53809,-3.8452 -1.53809,-8.4595 0,-4.6142 0,-9.9975 0,-5.3833 -1.53809,-9.9976 l -9.22851,0 q -0.76904,6.1524 -6.15235,7.6904 -4.61425,1.5381 -8.45947,5.3833 -2.30713,-0.769 0.76905,-3.0761 3.07617,-3.0762 5.3833,-6.1524 3.07617,-3.8452 6.15234,-6.9214 3.07617,-3.0761 7.69043,-4.6142 -3.07617,-3.0762 -0.76904,-4.6143 3.07617,-1.5381 3.84521,-3.8452 -1.53808,-3.0762 -3.07617,-4.6142 -0.76904,-2.3072 0.76904,-6.1524 -4.61426,0.7691 -3.84521,-5.3833 0.76904,-6.1523 3.07617,-9.2285 -3.07617,0 -5.3833,0.769 -1.53809,0.7691 -4.61426,-0.769 -1.53809,4.6143 -6.92139,5.3833 -4.61425,0 -7.69043,3.0762 0.76905,6.1523 -4.61425,8.4594 -5.3833,2.3072 -8.45948,3.0762 -10.7666,3.0762 -8.45947,7.6904 2.30713,4.6143 -2.30713,6.1524 -5.3833,-7.6904 -4.61426,-8.4595 0.76905,-0.769 1.53809,-2.3071 -0.76904,-3.8452 0.76904,-5.3833 2.30713,-2.3071 3.84522,-4.6143 1.53808,-2.3071 3.84521,-3.8452 2.30713,-1.5381 5.3833,0 6.92139,-4.6142 7.69043,-6.9214 0.76905,-2.3071 -2.30713,-3.0761 7.69043,0 12.30469,0 5.3833,0 9.22852,1.538 3.07617,-5.3833 7.69043,-6.1523 1.53808,-3.8452 2.30713,-9.2285 1.53808,-5.3833 0.76904,-9.2285 -6.92139,4.6142 -6.15234,5.3833 0.76904,0.769 0.76904,2.3071 -2.30713,-6.1523 2.30713,-11.53565 4.61426,-6.15234 0.76904,-13.07373 -3.84521,0 -7.69043,2.30713 -3.07617,2.30713 -6.92139,0.76904 -3.84521,8.45948 -6.92138,11.53565 -3.07617,3.07616 -6.92139,4.61426 -11.53564,6.1523 -19.22607,14.6118 -6.92139,7.6904 -15.380863,14.6118 -0.769043,5.3833 -6.921387,9.2285 -5.383301,3.8453 -5.383301,7.6905 -4.614257,0 -7.690429,3.0761 -2.307129,2.3072 -4.614258,5.3833 -1.538086,2.3072 -3.845215,5.3833 -1.538086,2.3072 -5.383301,3.0762 0.769043,12.3047 -3.845215,20.7642 -3.845214,7.6904 -11.535644,13.0737 -7.69043,5.3833 -16.918945,9.2285 -9.228516,3.0762 -19.2260746,5.3833 5.3833006,3.0762 9.9975586,3.8452 5.383301,0 10.766602,0 5.3833,0 9.997558,0 5.383301,-0.769 9.997559,-4.6142 3.076172,1.5381 6.921386,0.769 3.845215,-0.769 6.152344,-2.3071 8.459473,3.8452 15.38086,0.769 7.690429,-3.8452 13.842773,-5.3833 5.383301,-9.2285 9.228512,-6.1523 3.07618,-5.3833 12.30469,-8.4595 3.84522,9.2285 2.30713,10.7666 -1.53809,0.7691 -1.53809,3.8452 6.92139,1.5381 12.30469,0.7691 6.15235,-1.5381 11.53565,-2.3071 6.15234,-1.5381 11.53564,-1.5381 6.15234,-0.7691 13.84277,1.5381 2.30713,-1.5381 4.61426,-1.5381 3.07617,0 6.92139,-0.7691 z M 460.51624,575.01306 q -5.3833,0 -6.92138,-0.76904 -1.53809,-0.76904 -3.07618,0 0.76905,-3.84522 2.30713,-3.84522 2.30713,0 6.15235,-1.53808 l 1.53808,6.15234 z m -1.53808,6.92139 q -1.53809,2.30713 -5.3833,3.07617 -3.07618,0 -5.3833,1.53809 0,-5.3833 3.07617,-3.84522 3.84521,0.76904 7.69043,-0.76904 z m 45.37353,39.99023 q 0,3.84522 -3.84521,4.61426 -3.07617,0.76904 -2.30713,5.3833 -3.84522,2.30713 -6.92139,4.61426 -3.07617,1.53808 -7.69043,2.30713 -10.7666,6.15234 -10.7666,10.7666 0.76904,3.84521 -5.3833,4.61426 -3.07617,-4.61426 -0.76904,-5.3833 3.07617,-1.53809 5.3833,-3.07618 3.07617,-6.15234 4.61426,-6.92138 2.30712,-1.53809 6.15234,0 -3.07617,-3.07617 -0.76904,-5.3833 2.30713,-2.30713 5.3833,-3.84522 3.84521,0 6.92138,-0.76904 3.07618,-1.53809 2.30713,-5.3833 l 7.69043,-1.53809 z m -43.83545,38.45215 q 0,2.30713 -1.53808,3.07617 -1.53809,0 -3.84522,0.76905 -1.53808,0 -3.07617,0.76904 -1.53809,0.76904 -0.76904,3.84521 -3.84522,-1.53808 -6.15235,0.76905 -2.30713,1.53808 -6.15234,1.53808 0,-3.84521 2.30713,-4.61426 2.30713,-0.76904 2.30713,-3.07617 5.3833,3.84522 6.15234,2.30713 1.53809,-2.30713 3.84522,-3.84521 l 6.92138,-1.53809 z m 30.76172,56.14014 q -1.53808,5.3833 -6.92138,6.15234 1.53808,-5.3833 6.92138,-6.15234 z m -19.99512,1.53808 q -0.76904,3.07618 -6.92138,6.15235 0,-3.84522 2.30713,-3.84522 2.30713,-0.76904 4.61425,-2.30713 z m 14.61182,33.06885 q -3.84521,0 -9.99756,6.15235 -5.3833,-3.07618 -0.76904,-6.15235 5.3833,-3.07617 9.22852,-3.84521 l 1.53808,3.84521 z m -5.3833,53.06397 q 0,2.30713 -2.30713,4.61425 -1.53808,1.53809 -3.84521,1.53809 -0.76905,-4.61426 2.30713,-3.84521 3.07617,0.76904 3.84521,-2.30713 z m -13.07373,-1.53809 q -1.53809,2.30713 -4.61426,2.30713 -3.07617,-0.76904 -4.61426,0.76904 -0.76904,-5.3833 2.30713,-5.3833 3.84522,0 6.92139,2.30713 z m 3.07617,13.07373 q -2.30713,3.07617 -5.3833,4.61426 -3.07617,1.53808 -5.3833,3.07617 -0.76904,-2.30713 2.30713,-5.3833 3.07617,-3.07617 8.45947,-2.30713 z m 33.06885,102.28272 q 0,3.84521 -3.84522,4.61425 -3.07617,0 -4.61425,2.30713 2.30713,-1.53808 5.3833,-7.69043 l 3.07617,0.76905 z m -6.92139,22.30224 q 1.53809,2.30713 -2.30713,4.61426 -3.84521,2.30713 -5.3833,4.61426 -1.53808,-5.3833 0,-5.3833 2.30713,-0.76905 3.07617,-3.84522 l 4.61426,0 z m -6.15234,-13.07373 q -4.61426,6.92139 -13.84277,9.22852 -3.07618,3.84521 -6.15235,3.84521 -3.07617,0 -3.07617,-3.84521 10.7666,-6.15235 23.07129,-9.22852 z M 102.91126,551.94177 q -0.76904,3.84522 -4.614255,3.84522 -3.076172,0 -5.383301,1.53808 0,-1.53808 3.845215,-3.84521 3.845211,-3.07617 6.152341,-1.53809 z m 382.9834,398.36426 q -0.76904,4.61426 -6.92139,7.69043 -5.3833,2.30713 -9.22851,6.15234 -1.53809,-3.07617 1.53808,-5.3833 3.84522,-3.07617 7.69043,-3.84521 l 6.92139,-4.61426 z m -26.14746,13.07373 q 0,3.07617 -1.53809,10.7666 -3.84521,-5.3833 -1.53808,-6.15234 3.07617,-0.76904 3.07617,-4.61426 z M 107.52552,645.76501 q -8.459472,11.53565 -19.995117,16.91895 -1.538086,-4.61426 0.769043,-5.3833 2.307129,-1.53809 4.614258,-2.30713 0,-3.84521 3.845215,-6.92139 4.614261,-3.84521 10.766601,-2.30713 z M 486.6637,1057.203 q -3.84521,3.0762 -9.22851,6.9214 -4.61426,3.8452 -10.7666,0.769 6.15234,-1.5381 9.99756,-5.3833 4.61425,-3.8452 9.99755,-2.3071 z M 109.06361,706.51941 q -3.84522,2.30713 -6.15235,6.92139 -1.53808,3.84521 -6.921384,4.61425 2.307129,-9.99755 13.073734,-11.53564 z m 23.84033,31.53076 q -5.3833,6.15234 -6.92139,6.15234 -0.76904,-0.76904 -1.53808,0.76905 0,-5.3833 3.84521,-9.22852 3.84522,-4.61426 4.61426,0.76904 l 0,1.53809 z m -10.7666,8.45947 q -0.76905,3.07618 -2.30713,4.61426 -1.53809,1.53809 -3.07617,3.84522 -5.3833,0 -8.45948,-2.30713 9.99756,-3.07617 11.53565,-9.22852 l 2.30713,3.07617 z m -28.454593,11.53565 q -3.076172,-0.76904 -4.614258,0.76904 -1.538086,1.53809 -3.076172,3.07617 6.152344,-6.15234 7.69043,-6.15234 l 0,2.30713 z m 15.380863,5.3833 q -3.84522,3.07617 -9.228519,6.15234 -4.614258,2.30713 -3.845215,8.45948 -0.769043,-6.92139 1.538086,-11.53565 3.076168,-4.61426 11.535648,-3.07617 z m 6.92138,43.06641 q -1.53808,4.61425 -9.22851,7.69042 -6.921389,3.07618 -9.228518,-2.30712 3.845218,-1.53809 9.228518,-2.30713 5.3833,-0.76905 9.22851,-3.07617 z m 6.15235,26.9165 q -2.30713,0.76904 -5.3833,2.30713 -2.30713,1.53808 -2.30713,3.07617 -3.07617,-8.45947 0,-8.45947 3.07617,0 6.15234,-0.76905 l 1.53809,3.84522 z m 8.45947,256.8604 q -7.69043,3.0761 -9.22852,4.6142 -1.53808,1.5381 -4.61425,3.0762 -2.30713,-3.8452 -3.84522,-9.9976 0,3.0762 -3.84521,2.3072 -3.84522,-0.7691 -3.84522,3.0761 4.61426,-6.1523 7.69043,-11.5356 3.07617,-5.3833 9.22852,-7.6905 -4.61426,8.4595 -3.84522,9.2286 0.76904,0.769 0.76904,3.0761 6.15235,2.3072 8.45948,3.8453 2.30713,0.769 3.07617,0 z m -23.07129,-34.607 q -6.92139,6.9214 -10.766601,12.3047 -3.076172,4.6143 -6.152344,9.9976 -5.383301,-0.7691 -6.152344,2.3071 0,3.0762 -3.845215,2.3071 0,3.8452 -3.076171,6.9214 -3.076172,2.3071 -7.69043,3.0762 -3.845215,0.769 -7.69043,-0.7691 -3.076172,-1.538 -3.076172,-6.1523 1.538086,-3.8452 3.845215,-5.3833 3.076172,-1.5381 3.845215,-5.3833 3.076172,-1.5381 5.383301,0 2.307129,0.769 3.845215,-1.5381 -1.538086,-1.5381 -0.769043,-4.6143 0.769043,-3.8452 4.614257,-3.0761 5.383301,-5.3833 9.228516,-8.4595 3.845215,-3.8452 8.459473,-9.2285 -2.307129,5.3833 -0.769043,8.4595 8.459471,-3.0762 8.459471,-2.3072 0.76904,0.7691 2.30713,1.5381 z" />
  </g>
</svg>
