<?xml version="1.0" encoding="UTF-8" standalone="no"?>
<svg
   xmlns:dc="http://purl.org/dc/elements/1.1/"
   xmlns:cc="http://creativecommons.org/ns#"
   xmlns:rdf="http://www.w3.org/1999/02/22-rdf-syntax-ns#"
   xmlns:svg="http://www.w3.org/2000/svg"
   xmlns="http://www.w3.org/2000/svg"
   version="1.1"
   id="svg2"
   viewBox="0 0 355.21971 129.97372"
   height="36.681473mm"
   width="100.25089mm">
  <defs
     id="defs4" />
  <metadata
     id="metadata7">
    <rdf:RDF>
      <cc:Work
         rdf:about="">
        <dc:format>image/svg+xml</dc:format>
        <dc:type
           rdf:resource="http://purl.org/dc/dcmitype/StillImage" />
        <dc:title></dc:title>
      </cc:Work>
    </rdf:RDF>
  </metadata>
  <path
     id="path4144"
     style="font-style:normal;font-variant:normal;font-weight:normal;font-stretch:normal;font-size:medium;line-height:125%;font-family:'Helvetica Neue';-inkscape-font-specification:'Helvetica Neue';letter-spacing:0px;word-spacing:0px;fill:#ffffff;fill-opacity:1;stroke:none;stroke-width:1px;stroke-linecap:butt;stroke-linejoin:miter;stroke-opacity:1"
     d="m 195.10185,84.211665 -57.44772,0 56.96497,-62.438992 0.48275,0 0,62.438992 z m 19.31016,0 0,-84.211665 -16.41364,0 -77.96476,82.952089 0,14.755038 75.06824,0 0,29.869943 19.31016,0 0,-29.869943 23.17219,0 0,-13.495462 -23.17219,0 z" />
  <path
     id="path4166"
     style="font-style:normal;font-variant:normal;font-weight:bold;font-stretch:normal;font-size:medium;line-height:125%;font-family:'Helvetica Neue';-inkscape-font-specification:'Helvetica Neue Bold';letter-spacing:0px;word-spacing:0px;fill:#ffffff;fill-opacity:1;stroke:none;stroke-width:1px;stroke-linecap:butt;stroke-linejoin:miter;stroke-opacity:1"
     d="m 0,1.4537198 0,128.5200002 28.26,0 0,-55.440001 52.02,0 0,55.440001 28.26,0 0,-128.5200002 -28.26,0 0,49.3199992 -52.02,0 0,-49.3199992 -28.26,0 z" />
  <path
     id="path4170"
     style="font-style:normal;font-variant:normal;font-weight:bold;font-stretch:normal;font-size:medium;line-height:125%;font-family:'Helvetica Neue';-inkscape-font-specification:'Helvetica Neue Bold';letter-spacing:0px;word-spacing:0px;fill:#ffffff;fill-opacity:1;stroke:none;stroke-width:1px;stroke-linecap:butt;stroke-linejoin:miter;stroke-opacity:1"
     d="m 246.67969,1.4537198 0,128.5200002 28.26,0 0,-55.440001 52.02,0 0,55.440001 28.26,0 0,-128.5200002 -28.26,0 0,49.3199992 -52.02,0 0,-49.3199992 -28.26,0 z" />
</svg>
