<?xml version="1.0" encoding="UTF-8" standalone="no"?>
<!-- Created with Inkscape (http://www.inkscape.org/) -->

<svg
   xmlns:dc="http://purl.org/dc/elements/1.1/"
   xmlns:cc="http://creativecommons.org/ns#"
   xmlns:rdf="http://www.w3.org/1999/02/22-rdf-syntax-ns#"
   xmlns:svg="http://www.w3.org/2000/svg"
   xmlns="http://www.w3.org/2000/svg"
   xmlns:sodipodi="http://sodipodi.sourceforge.net/DTD/sodipodi-0.dtd"
   xmlns:inkscape="http://www.inkscape.org/namespaces/inkscape"
   id="svg2"
   version="1.1"
   inkscape:version="0.48.4 r9939"
   width="124.199"
   height="124.19625"
   xml:space="preserve"
   sodipodi:docname="heart.svg"><metadata
     id="metadata8"><rdf:RDF><cc:Work
         rdf:about=""><dc:format>image/svg+xml</dc:format><dc:type
           rdf:resource="http://purl.org/dc/dcmitype/StillImage" /><dc:title></dc:title></cc:Work></rdf:RDF></metadata><defs
     id="defs6" /><sodipodi:namedview
     pagecolor="#ffffff"
     bordercolor="#666666"
     borderopacity="1"
     objecttolerance="10"
     gridtolerance="10"
     guidetolerance="10"
     inkscape:pageopacity="0"
     inkscape:pageshadow="2"
     inkscape:window-width="1130"
     inkscape:window-height="1078"
     id="namedview4"
     showgrid="false"
     fit-margin-top="0"
     fit-margin-left="0"
     fit-margin-right="0"
     fit-margin-bottom="0"
     inkscape:zoom="6.0225929"
     inkscape:cx="62.099499"
     inkscape:cy="62.098125"
     inkscape:window-x="0"
     inkscape:window-y="0"
     inkscape:window-maximized="0"
     inkscape:current-layer="g10" /><g
     id="g10"
     inkscape:groupmode="layer"
     inkscape:label="ink_ext_XXXXXX"
     transform="matrix(1.25,0,0,-1.25,-35.8935,142.94625)"><path
       inkscape:connector-curvature="0"
       id="path60"
       style="fill:#40a471;fill-opacity:1;fill-rule:nonzero;stroke:none"
       d="m 78.3922,15 c 27.4358,0 49.6818,22.243 49.6818,49.6781 0,27.4348 -22.246,49.6789 -49.6818,49.6789 -27.4336,0 -49.6774,-22.2441 -49.6774,-49.6789 C 28.7148,37.243 50.9586,15 78.3922,15" /><g
       id="g4226"
       transform="translate(0.14150703,2.457135)"><path
         sodipodi:nodetypes="ccccc"
         d="M 98.0535,83.0691 C 88.402,89.893 78.6,81.3922 78.6,81.3922 c 0,0 -9.6328,8.6879 -19.4148,2.0558 C 49.4004,76.816 46.628066,52.493742 78.914466,38.499642 107.98527,52.242642 107.704,76.2469 98.0535,83.0691"
         style="fill:#f02a18;fill-opacity:1;fill-rule:nonzero;stroke:none"
         id="path64"
         inkscape:connector-curvature="0" /><path
         sodipodi:nodetypes="cccccccccc"
         d="m 93.2359,78.4961 c -2.4804,1.1141 -5.3183,0.391 -5.6464,0.1039 -0.3668,-0.2418 -0.8219,-0.2641 -1.2094,-0.1012 -0.2184,0.0903 -0.4153,0.2422 -0.5625,0.4453 -0.4043,0.5668 -0.2731,1.3258 0.2992,1.7008 1.4051,0.8442 4.5402,1.4949 8.0586,0.0949 2.924015,-1.252918 4.164685,-3.419282 5.526785,-5.423582 0.393695,-0.5738 0.2367,-1.327 -0.3441,-1.6891 -0.5797,-0.3609 -1.368,-0.1847 -1.7653,0.3891 -1.0941,1.6051 -1.990054,3.380469 -4.356885,4.479882"
         style="fill:#f6857b;fill-opacity:1;fill-rule:nonzero;stroke:none"
         id="path66"
         inkscape:connector-curvature="0" /></g></g></svg>