<?xml version="1.0" encoding="UTF-8" standalone="no"?>
<!-- Created with Inkscape (http://www.inkscape.org/) -->

<svg
   xmlns:dc="http://purl.org/dc/elements/1.1/"
   xmlns:cc="http://creativecommons.org/ns#"
   xmlns:rdf="http://www.w3.org/1999/02/22-rdf-syntax-ns#"
   xmlns:svg="http://www.w3.org/2000/svg"
   xmlns="http://www.w3.org/2000/svg"
   xmlns:sodipodi="http://sodipodi.sourceforge.net/DTD/sodipodi-0.dtd"
   xmlns:inkscape="http://www.inkscape.org/namespaces/inkscape"
   id="svg2"
   version="1.1"
   inkscape:version="0.48.4 r9939"
   width="68.726128"
   height="68.72525"
   xml:space="preserve"
   sodipodi:docname="Factory_Vector_Free.eps"><metadata
     id="metadata8"><rdf:RDF><cc:Work
         rdf:about=""><dc:format>image/svg+xml</dc:format><dc:type
           rdf:resource="http://purl.org/dc/dcmitype/StillImage" /><dc:title></dc:title></cc:Work></rdf:RDF></metadata><defs
     id="defs6" /><sodipodi:namedview
     pagecolor="#ffffff"
     bordercolor="#666666"
     borderopacity="1"
     objecttolerance="10"
     gridtolerance="10"
     guidetolerance="10"
     inkscape:pageopacity="0"
     inkscape:pageshadow="2"
     inkscape:window-width="1130"
     inkscape:window-height="1078"
     id="namedview4"
     showgrid="false"
     fit-margin-top="0"
     fit-margin-left="0"
     fit-margin-right="0"
     fit-margin-bottom="0"
     inkscape:zoom="9.3123245"
     inkscape:cx="34.363064"
     inkscape:cy="34.362625"
     inkscape:window-x="0"
     inkscape:window-y="0"
     inkscape:window-maximized="0"
     inkscape:current-layer="g10" /><g
     id="g10"
     inkscape:groupmode="layer"
     inkscape:label="ink_ext_XXXXXX"
     transform="matrix(1.25,0,0,-1.25,-39.32125,178.62125)"><path
       inkscape:connector-curvature="0"
       id="path212"
       style="fill:#82d3d3;fill-opacity:1;fill-rule:evenodd;stroke:none"
       d="m 58.9473,142.897 c 15.1797,0 27.4906,-12.31 27.4906,-27.49 0,-15.18 -12.3109,-27.4902 -27.4906,-27.4902 -15.1797,0 -27.4903,12.3102 -27.4903,27.4902 0,15.18 12.3106,27.49 27.4903,27.49" /><path
       inkscape:connector-curvature="0"
       id="path164"
       style="fill:#e9e9e9;fill-opacity:1;fill-rule:evenodd;stroke:none"
       d="m 56.181733,131.28411 c 0.138,0.554 0.639,0.965 1.235,0.965 0.687,0 1.246,-0.543 1.271,-1.223 0.583,-0.306 0.981,-0.917 0.981,-1.621 0,-1.01 -0.819,-1.829 -1.828,-1.829 -0.425,0 -0.816,0.145 -1.126,0.387 -0.126,-0.647 -0.696,-1.136 -1.381,-1.136 -0.17,0 -0.332,0.03 -0.482,0.085 -0.018,-0.762 -0.641,-1.374 -1.407,-1.374 -0.011,0 -0.024,0 -0.036,0 0.001,-0.01 0.001,-0.02 0.001,-0.03 0,-0.611 -0.495,-1.106 -1.106,-1.106 -0.297,0 -0.566,0.117 -0.765,0.308 -0.148,-0.288 -0.448,-0.484 -0.794,-0.484 -0.493,0 -0.892,0.4 -0.892,0.892 0,0.406 0.272,0.75 0.644,0.857 -0.143,0.187 -0.228,0.419 -0.228,0.672 0,0.61 0.495,1.106 1.106,1.106 0.071,0 0.142,-0.007 0.21,-0.02 -0.075,0.172 -0.117,0.361 -0.117,0.561 0,0.777 0.63,1.407 1.407,1.407 0.109,0 0.214,-0.012 0.315,-0.035 -0.009,0.071 -0.013,0.145 -0.013,0.219 0,1.009 0.819,1.828 1.829,1.828 0.448,0 0.858,-0.161 1.176,-0.429" /><path
       inkscape:connector-curvature="0"
       id="path216"
       style="fill:#ffffff;fill-opacity:1;fill-rule:evenodd;stroke:none"
       d="m 74.712984,104.913 c -2.072701,4.4887 -5.04342,8.7978 -2.748661,14.16 l -9.659217,0 c 1.960611,-4.72 -0.47721,-9.44 -2.74809,-14.16 l 15.155968,0"
       sodipodi:nodetypes="ccccc" /><path
       inkscape:connector-curvature="0"
       id="path222"
       style="fill:#ffffff;fill-opacity:1;fill-rule:evenodd;stroke:none"
       d="m 46.656278,122.488 9.605277,0 c -2.240175,-6.70245 0.0256,-12.22944 2.986845,-17.575 l -15.5785,0 c 2.736808,5.0844 4.353092,10.66681 2.986378,17.575"
       sodipodi:nodetypes="ccccc" /><path
       inkscape:connector-curvature="0"
       id="path250"
       style="fill:#835523;fill-opacity:1;fill-rule:evenodd;stroke:none"
       d="m 42.9227,104.913 32.0308,0 c 0.5391,0 0.9797,-0.441 0.9797,-0.979 l 0,-1.96 c 0,-0.538 -0.4406,-0.979 -0.9797,-0.979 l -32.0308,0 c -0.5391,0 -0.9797,0.441 -0.9797,0.979 l 0,1.96 c 0,0.538 0.4406,0.979 0.9797,0.979" /><path
       d="m 72.235454,128.46767 c 0.138,0.554 0.639,0.965 1.235,0.965 0.687,0 1.246,-0.543 1.271,-1.223 0.583,-0.306 0.981,-0.917 0.981,-1.621 0,-1.01 -0.819,-1.829 -1.828,-1.829 -0.425,0 -0.816,0.145 -1.126,0.387 -0.126,-0.647 -0.696,-1.136 -1.381,-1.136 -0.17,0 -0.332,0.03 -0.482,0.085 -0.018,-0.762 -0.641,-1.374 -1.407,-1.374 -0.011,0 -0.024,0 -0.036,0 0.001,-0.01 0.001,-0.02 0.001,-0.03 0,-0.611 -0.495,-1.106 -1.106,-1.106 -0.297,0 -0.566,0.117 -0.765,0.308 -0.148,-0.288 -0.448,-0.484 -0.794,-0.484 -0.493,0 -0.892,0.4 -0.892,0.892 0,0.406 0.272,0.75 0.644,0.857 -0.143,0.187 -0.228,0.419 -0.228,0.672 0,0.61 0.495,1.106 1.106,1.106 0.071,0 0.142,-0.007 0.21,-0.02 -0.075,0.172 -0.117,0.361 -0.117,0.561 0,0.777 0.63,1.407 1.407,1.407 0.109,0 0.214,-0.012 0.315,-0.035 -0.009,0.071 -0.013,0.145 -0.013,0.219 0,1.009 0.819,1.828 1.829,1.828 0.448,0 0.858,-0.161 1.176,-0.429"
       style="fill:#e9e9e9;fill-opacity:1;fill-rule:evenodd;stroke:none"
       id="path3418"
       inkscape:connector-curvature="0" /></g></svg>