<?xml version="1.0" encoding="UTF-8" standalone="no"?>
<!-- Created with Inkscape (http://www.inkscape.org/) -->

<svg
   xmlns:dc="http://purl.org/dc/elements/1.1/"
   xmlns:cc="http://creativecommons.org/ns#"
   xmlns:rdf="http://www.w3.org/1999/02/22-rdf-syntax-ns#"
   xmlns:svg="http://www.w3.org/2000/svg"
   xmlns="http://www.w3.org/2000/svg"
   xmlns:sodipodi="http://sodipodi.sourceforge.net/DTD/sodipodi-0.dtd"
   xmlns:inkscape="http://www.inkscape.org/namespaces/inkscape"
   id="svg2"
   version="1.1"
   inkscape:version="0.48.4 r9939"
   width="68.726128"
   height="68.72525"
   xml:space="preserve"
   sodipodi:docname="leaf.svg"><metadata
     id="metadata8"><rdf:RDF><cc:Work
         rdf:about=""><dc:format>image/svg+xml</dc:format><dc:type
           rdf:resource="http://purl.org/dc/dcmitype/StillImage" /><dc:title></dc:title></cc:Work></rdf:RDF></metadata><defs
     id="defs6" /><sodipodi:namedview
     pagecolor="#ffffff"
     bordercolor="#666666"
     borderopacity="1"
     objecttolerance="10"
     gridtolerance="10"
     guidetolerance="10"
     inkscape:pageopacity="0"
     inkscape:pageshadow="2"
     inkscape:window-width="1130"
     inkscape:window-height="1078"
     id="namedview4"
     showgrid="false"
     fit-margin-top="0"
     fit-margin-left="0"
     fit-margin-right="0"
     fit-margin-bottom="0"
     inkscape:zoom="6.533129"
     inkscape:cx="29.255406"
     inkscape:cy="44.675629"
     inkscape:window-x="0"
     inkscape:window-y="0"
     inkscape:window-maximized="0"
     inkscape:current-layer="g10" /><g
     id="g10"
     inkscape:groupmode="layer"
     inkscape:label="ink_ext_XXXXXX"
     transform="matrix(1.25,0,0,-1.25,-39.32125,178.62125)"><path
       inkscape:connector-curvature="0"
       id="path212"
       style="fill:#fb8c00;fill-opacity:1;fill-rule:evenodd;stroke:none"
       d="m 58.9473,142.897 c 15.1797,0 27.4906,-12.31 27.4906,-27.49 0,-15.18 -12.3109,-27.4902 -27.4906,-27.4902 -15.1797,0 -27.4903,12.3102 -27.4903,27.4902 0,15.18 12.3106,27.49 27.4903,27.49" /><path
       style="fill:#e68000;fill-opacity:1;stroke:none"
       d="M 49.40625 15.78125 L 20.75 46.03125 L 40.65625 68.15625 C 55.739444 65.360596 67.383322 52.697908 68.625 37.125 L 49.40625 15.78125 z "
       transform="matrix(0.8,0,0,-0.8,31.457,142.897)"
       id="rect4337" /><path
       style="fill:#00a600;fill-opacity:1;stroke:none"
       d="m 62.745496,116.20153 c 0,0 3.510484,-4.80691 5.056838,-7.73152 1.546355,-2.9246 3.627766,-8.929419 3.627766,-8.929419 l -1.627082,-1.04534 c 0,0 -2.138987,6.486159 -3.429791,9.321389 -1.290799,2.83524 -4.836976,7.29595 -4.836976,7.29595 0,0 3.37739,-6.02002 2.069834,-9.45289 -1.307557,-3.43286 -4.021878,-3.88558 -5.91743,-3.61447 -1.895552,0.27112 -3.957528,3.48463 -3.957528,3.48463 0,0 -4.252575,-1.45801 -5.936289,0.76226 -1.683715,2.22028 -1.129101,5.95677 0.513102,7.5949 1.642201,1.63811 6.082776,3.51235 6.082776,3.51235 0,0 -6.681972,0.19148 -8.660188,2.01294 -1.978216,1.82147 -2.182448,4.7222 -0.903836,7.13421 1.278611,2.41199 4.739239,1.45299 4.739239,1.45299 0,0 -0.458876,2.91482 2.194246,5.03444 2.653122,2.11962 4.830953,0.40167 6.691329,-1.28032 1.860375,-1.68198 1.985432,-7.6028 1.985432,-7.6028 0,0 2.817406,5.40297 4.94691,6.31589 2.129504,0.91292 3.783074,1.14959 5.826362,-0.54448 2.043279,-1.69407 1.305831,-6.2202 1.305831,-6.2202 0,0 2.747581,-0.6542 3.201348,-2.92695 0.453767,-2.27273 -0.366277,-4.67626 -1.86883,-5.98919 -1.502554,-1.31292 -3.670797,-1.2111 -5.606502,-0.98005 -1.935704,0.23104 -5.496561,2.39568 -5.496561,2.39568 z"
       id="path4323"
       inkscape:connector-curvature="0"
       sodipodi:nodetypes="czcczczzczzczzczzczzczzzc" /></g></svg>